<?xml version="1.0" encoding="utf-8"?>
<!-- Generator: Adobe Illustrator 21.1.0, SVG Export Plug-In . SVG Version: 6.00 Build 0)  -->
<svg version="1.1" id="Capa_1" xmlns="http://www.w3.org/2000/svg" xmlns:xlink="http://www.w3.org/1999/xlink" x="0px" y="0px"
	 viewBox="0 0 499.1 500.4" style="enable-background:new 0 0 499.1 500.4;" xml:space="preserve">
<style type="text/css">
	.st0{fill:none;}
</style>
<rect x="-283.6" y="-306.8" class="st0" width="1024" height="1126"/>
<rect x="-255.7" y="-306.8" class="st0" width="1024" height="1126"/>
<g>
	<path d="M453.6,236.6c-6.9,3.8-8,9.9-9.8,17.2c-1.6,6.7-7.8,14.5-14.1,17.3c-16,7.4-32.7,14.6-49.9,17.7
		c-29.9,5.4-60.4,7.8-90.6,11.4c-1.8,0.2-3.5,0.3-6.2,0.4c1.5,17.1-2.5,32-16.4,42.8c-8.5,6.6-18.3,9.4-28.8,8.6
		c-25.2-1.7-39.3-20.4-38.9-52c-16-1.8-32.3-2.3-48.1-5.6c-24.7-5.1-49.3-11-73.3-18.6c-13.4-4.2-24.9-12.9-23.7-30.3
		c0.1-1.7-2.9-3.9-4.7-5.5c-5-4.5-4.6-9.2,0.1-13.9c2.3-2.3,3.4-5.9,4.8-9.1c0.4-1,0.1-2.4,0.1-3.6c0-26.6,4.2-33.2,29.3-43
		c30.9-12.1,63.6-16.2,96.4-19.1c46.4-4.1,92.9-4.4,139.4-0.1c33.1,3.1,66,7.4,97.1,19.8c5.3,2.1,10.4,4.8,15.2,7.8
		c9.2,5.6,14.5,13.6,13.2,24.8c0,0.3,0,0.6,0,0.9c0.2,9.8-2.5,20.5,8.8,26.6C453.6,233,453.6,234.8,453.6,236.6z M71.1,222.9
		c-0.4,33.1-6.9,32.8,25.7,42.4c28.1,8.3,57.8,11.5,86.8,16.4c13,2.2,26.3,3.5,36.2-8.6c0.4-0.4,1.1-0.6,1.6-0.9
		c5-2.8,10.9-3.6,13.7-10.3c2.1-4.9,9.4-3.5,12.9,1c2.4,3,5.5,5.4,8.7,7.7c4.4,3.1,8.9,6.2,13.6,8.7c3.7,2,8,4.6,11.8,4.3
		c29.7-2.8,59.6-5,89-9.8c16.4-2.7,32.2-9.5,48-15.3c3.6-1.3,8-5.7,8.6-9.3c1.2-8.5,0.4-17.2,0.4-26.1
		C323.4,259.5,164.7,259.4,71.1,222.9z M429.4,197.9c-5.8-3.6-10.6-8.2-16.3-9.9c-17.8-5.5-35.7-11.2-54-14.5
		c-51.7-9.3-104.1-9.9-156.4-7.1c-36.5,2-72.9,5.9-107.8,17.8c-7.1,2.4-13.7,6.2-20.1,10c-1.8,1.1-3.5,5.3-2.8,7.1
		c2.2,5.8,14.5,10.1,20.9,8.3c9.9-2.7,19.8-5.5,29.8-7.6c54.6-11.2,109.8-12.6,165.2-10.3c38.4,1.6,76.5,5.8,113.6,16.4
		C414.1,211.7,419.3,210.3,429.4,197.9z M378.6,220.5c-86.2-17-172.3-17.1-258.4,0C206.4,237.5,292.5,237.4,378.6,220.5z
		 M215.5,309.8c0,14.2,10.9,25.4,24.9,25.6c14.2,0.3,26.1-11.4,26.1-25.6c0-14.1-12-26-26-25.8C226.8,284.3,215.5,295.9,215.5,309.8
		z"/>
	<path d="M371.7,258.2c-5.2,4.1-8.5,8.7-11.1,8.3c-3.2-0.5-5.9-5-8.8-7.8c2.7-2.6,5.1-7.1,8.1-7.4
		C362.8,250.9,366.2,254.8,371.7,258.2z"/>
	<path d="M138.2,247.3c4.1,5,8.7,8.4,8.2,10.7c-0.6,3.4-4.9,6.1-7.7,9.1c-2.7-2.7-7.2-5.1-7.7-8.2
		C130.6,256.2,134.6,252.8,138.2,247.3z"/>
	<path d="M239.5,319.5c-2.3-3.3-6.3-6.5-6.4-9.8c0-2.6,4.7-7.2,7.5-7.4c2.6-0.2,7.5,4.2,7.8,6.9c0.3,3.2-3.2,6.8-5.1,10.2
		C242,319.4,240.7,319.4,239.5,319.5z"/>
</g>
</svg>
