<?xml version="1.0" encoding="utf-8"?>
<!-- Generator: Adobe Illustrator 21.1.0, SVG Export Plug-In . SVG Version: 6.00 Build 0)  -->
<svg version="1.1" id="Capa_1" xmlns="http://www.w3.org/2000/svg" xmlns:xlink="http://www.w3.org/1999/xlink" x="0px" y="0px"
	 viewBox="0 0 292.5 186.2" style="enable-background:new 0 0 292.5 186.2;" xml:space="preserve">
<g>
	<path d="M190.7,72.4c0-1.6,0-2.6,0-3.6c0-13.2,0-26.4,0-39.6c0-2.3-0.5-3.2-3-3.2c-51.3,0.1-102.5,0.1-153.8,0
		c-1.8,0-2.9,0.1-2.9,2.5c0.1,33.3,0,66.5,0.1,99.8c0,0.6,0.1,1.2,0.2,2.1c38.6,0,77.2,0,116.2,0c-0.3,1.4-0.5,2.5-0.9,3.5
		c-4.3,13-8.7,26-12.9,39c-0.7,2.1-1.7,2.6-3.7,2.6c-36.9-0.1-73.9,0-110.8,0c-4.7,0-5.7-1.1-5.7-5.7c0-51.9,0-103.7,0-155.6
		c0-4.6,1-5.7,5.7-5.7c60.2,0,120.3,0,180.5,0c4.4,0,5.5,1.1,5.5,5.4c0,14,0.1,27.9-0.1,41.9c0,1.4-0.7,3.1-1.6,4.1
		c-3.4,3.7-7.1,7.2-10.7,10.8C192.3,71.2,191.7,71.5,190.7,72.4z"/>
	<path d="M260.4,95.4c-9.9,9.8-19.5,19.4-29.2,29c-11,11-21.9,22-33,32.9c-1.6,1.6-3.7,3-5.8,3.8c-15.4,5.4-30.8,10.7-46.2,16
		c-0.7,0.2-1.5,0.4-2.5,0.6c1.1-3.5,2.1-6.8,3.2-9.9c4.1-12.5,8.5-24.9,12.4-37.5c1.5-4.8,4.7-7.8,8-11
		c18.1-18.2,36.3-36.3,54.4-54.4c4.3-4.3,4.2-4.3,8.5,0c9.4,9.5,18.9,18.9,28.3,28.3C259,93.7,259.6,94.4,260.4,95.4z M153.8,167.7
		c10.5-3.4,20.2-6.6,30.1-9.8c-6.9-7-13.6-13.7-20.6-20.7C160.2,147.3,157.1,157.2,153.8,167.7z"/>
	<path d="M81,102.9c2.4-5,4.3-9.7,6.7-14.2c3.2-6,6.8-11.8,12.4-16c7.3-5.4,14.2-5.5,21.2,0.5c3.6,3.2,6.9,6.9,9.7,10.9
		c7,10,11.7,21.2,16.2,32.5c0.1,0.3,0.1,0.7,0.2,1.2c-37.5,0-74.9,0-112.6,0c3.8-11.1,7.2-22,15-30.7c1.5-1.7,3.4-3.1,5.3-4.2
		c4.3-2.5,10.1-1.5,14.2,3.1c3.7,4.2,6.7,9.1,9.9,13.6C79.7,100.5,80.2,101.5,81,102.9z"/>
	<path d="M245.7,41.6c1,0.7,1.9,1.2,2.6,1.9c6.5,6.4,12.9,12.9,19.4,19.4c3.3,3.3,6.6,6.7,10,10c1.7,1.6,2,3.2,0.3,4.9
		c-3.8,3.8-7.5,7.5-11.3,11.3c-1.6,1.6-3.1,1.6-4.7,0c-9.8-9.9-19.7-19.7-29.5-29.6c-2.2-2.2-2.2-3-0.1-5.2
		c3.6-3.7,7.2-7.3,10.9-10.9C243.9,42.6,244.7,42.2,245.7,41.6z"/>
	<path d="M166.7,49.9c0,8.6-7,15.7-15.6,15.7c-8.7-0.1-15.8-7.1-15.7-15.6c0.1-8.5,7-15.4,15.6-15.5
		C159.7,34.4,166.7,41.2,166.7,49.9z"/>
</g>
</svg>
