<?xml version="1.0" encoding="utf-8"?>
<!-- Generator: Adobe Illustrator 21.1.0, SVG Export Plug-In . SVG Version: 6.00 Build 0)  -->
<svg version="1.1" id="Capa_1" xmlns="http://www.w3.org/2000/svg" xmlns:xlink="http://www.w3.org/1999/xlink" x="0px" y="0px"
	 viewBox="0 0 499.1 500.4" style="enable-background:new 0 0 499.1 500.4;" xml:space="preserve">
<style type="text/css">
	.st0{fill:none;}
</style>
<rect x="-283.6" y="-306.8" class="st0" width="1024" height="1126"/>
<rect x="-255.7" y="-306.8" class="st0" width="1024" height="1126"/>
<g>
	<path d="M33.4,341.5c7.6-32.3,15.3-64.6,22.9-96.9c2.8-12.1,5.6-24.3,8.1-36.5c2.7-12.7,12.8-17.2,23.3-20.2
		c9.2-2.5,14.7-6.6,18.6-16c6.9-17.1,21.3-26,39.7-27.4c5.5-0.4,9-1.9,12.5-6.6c12.2-16.5,29-22,49.1-19c3,0.4,7.4-0.8,9.6-2.9
		c20-19.8,45.6-19.7,65.5,0.1c2.1,2.1,6.5,3.2,9.6,2.7c20.1-2.8,36.4,3,49.4,19c2.5,3.1,7.3,5.7,11.4,6.2
		c21.2,2.5,35.3,13.4,43.3,33.1c1.4,3.4,5.3,6.4,8.8,8.2c5.9,3.1,13.2,4,18.4,7.8c5,3.7,10.2,9.5,11.6,15.3
		c10.5,43.5,19.9,87.2,30.1,130.8c1.8,7.7,0.3,14.1-5.6,17.9c-10.1,6.5-20.6,13-31.8,17c-40.4,14.4-82.6,19.8-125.1,23.1
		c-52.3,4.1-104.4,2.1-156.2-5.7c-31-4.7-62-10-90.4-24c-8.5-4.2-15.1-12.1-22.6-18.3C33.4,346.6,33.4,344,33.4,341.5z M76.6,224.1
		c-0.8,2.7-1.9,5.3-2.5,8c-8,35.2-15.7,70.5-24.2,105.6c-1.7,6.9,0.1,10.7,5.7,13.1c11.4,4.9,22.8,10.4,34.7,13.6
		c97.1,25.6,195,26,293,6.4c20.2-4,39.5-12.4,59-19.2c6.7-2.4,9.3-6.7,7-15c-5-18.2-8.4-36.8-12.6-55.1c-4.4-19.1-9-38.2-13.5-57.5
		C358.5,252.2,145.1,253.2,76.6,224.1z M248,232.2c35.9-2.3,69.5-4.3,103-6.8c5.9-0.4,12.5-1.4,17.2-4.5c13.7-9,18.6-25.2,13.3-39.6
		c-5.4-14.8-19-23.8-35.4-22.1c-7.4,0.8-10.9-1.7-14.1-8c-8.3-16.2-25.7-22.8-42.3-15.8c-7.4,3.1-11.4,2-15.6-4.9
		c-12.2-19.8-36.5-19.7-48.6,0c-3.9,6.3-7.3,8.3-14.7,5.2c-17.6-7.4-35.1-0.8-43.7,16.3c-2.9,5.9-6.2,8.1-12.7,7.1
		c-10-1.6-19.1,1.3-26.7,8c-10.4,9.1-14.3,20.8-10.5,33.8c3.8,12.9,11.5,22.6,26.8,23.6C179.3,226.9,214.7,229.7,248,232.2z
		 M399,198.7c-2.4,7.1-4.4,12.9-7,20.5c9.8-3.6,18.2-6.7,26.6-9.7c0-0.9,0-1.8,0-2.7C412.2,204.1,406,201.6,399,198.7z M81,206.7
		c0,1,0,1.9,0,2.9c8.5,3,17,6,26.7,9.4c-2.8-7.9-4.9-13.7-7.2-20.2C93.6,201.5,87.3,204.1,81,206.7z"/>
	<path d="M193.7,281.2c37.5,0,74.6,0,108.9,0c7.7-9.2,13.1-18.2,20.8-24.1c11.9-9,29.4-6.6,40.9,3.3c11.5,9.9,15.5,26.9,8.7,41
		c-2.3,4.8-2.3,8.2-0.1,13.1c8.5,18.2,0.6,38.7-17.4,46.7c-18.4,8.2-39.4,0-46.6-19.1c-2.3-6.1-5.3-7.5-11.1-7.5
		c-32,0.2-64.1,0.2-96.1,0c-5.9,0-8.8,1.4-11.1,7.5c-7.1,18.9-28.4,27.2-46.7,19.1c-17.9-7.9-25.9-28.6-17.4-46.7
		c2.3-4.9,2.2-8.2,0-13c-8.4-18-0.3-38.9,17.5-46.7c18.4-8,39.2,0.5,46.9,19.2C191.9,276.4,192.7,278.8,193.7,281.2z M250.3,320.2
		c19.2,0,38.5,0.2,57.7-0.1c7.9-0.1,12.7,1.6,13.2,10.8c0.6,9.5,6.1,16.2,15.7,18.1c9,1.8,16.6-1.1,21.5-9c5.4-8.8,4-17.3-2.7-24.7
		c-4.5-4.9-5-9.3-0.3-14.2c7.1-7.4,8.3-15.8,3-24.5c-4.7-8-12.2-11.5-21.3-9.5c-9.8,2.1-15.8,8.9-16.2,18.9
		c-0.4,8.3-4.6,10-11.8,9.9c-39.7-0.2-79.5-0.2-119.2,0c-7.5,0-11.2-2.2-11.7-10.2c-0.6-10.1-6.5-16.8-16.4-18.8
		c-9.1-1.9-16.5,1.8-21.2,9.8c-5.2,8.9-3.7,17.2,3.4,24.5c4.3,4.5,3.7,8.3,0.3,13.5c-3.2,5.1-6.2,11.5-6.1,17.3
		c0.2,9.8,9.1,16.9,18.6,17.3c10.9,0.4,19.9-5.8,20.9-16.8c1-10.9,6.2-12.8,15.7-12.5C212.5,320.6,231.4,320.2,250.3,320.2z"/>
</g>
</svg>
