<?xml version="1.0" encoding="utf-8"?>
<!-- Generator: Adobe Illustrator 21.1.0, SVG Export Plug-In . SVG Version: 6.00 Build 0)  -->
<svg version="1.1" id="Capa_1" xmlns="http://www.w3.org/2000/svg" xmlns:xlink="http://www.w3.org/1999/xlink" x="0px" y="0px"
	 viewBox="0 0 11.8 13.1" style="enable-background:new 0 0 11.8 13.1;" xml:space="preserve">
<style type="text/css">
	.st0{clip-path:url(#SVGID_2_);}
	.st1{clip-path:url(#SVGID_4_);fill:#E9E9E9;}
	.st2{clip-path:url(#SVGID_6_);}
	.st3{clip-path:url(#SVGID_8_);fill:#E9E9E9;}
	.st4{clip-path:url(#SVGID_10_);}
	.st5{clip-path:url(#SVGID_12_);fill:#E9E9E9;}
	.st6{fill:#ECECEC;}
</style>
<g>
	<defs>
		<polygon id="SVGID_1_" points="73,-397 73,-328.8 103.2,-343 133.4,-328.8 133.4,-397 		"/>
	</defs>
	<clipPath id="SVGID_2_">
		<use xlink:href="#SVGID_1_"  style="overflow:visible;"/>
	</clipPath>
	<g class="st0">
		<defs>
			<rect id="SVGID_3_" x="-490" y="-676" width="1024" height="1384"/>
		</defs>
		<clipPath id="SVGID_4_">
			<use xlink:href="#SVGID_3_"  style="overflow:visible;"/>
		</clipPath>
		<rect x="68" y="-402" class="st1" width="70.4" height="78.2"/>
	</g>
</g>
<g>
	<defs>
		<polygon id="SVGID_5_" points="54,-405 54,-336.8 84.2,-351 114.4,-336.8 114.4,-405 		"/>
	</defs>
	<clipPath id="SVGID_6_">
		<use xlink:href="#SVGID_5_"  style="overflow:visible;"/>
	</clipPath>
	<g class="st2">
		<defs>
			<rect id="SVGID_7_" x="-509" y="-684" width="1024" height="1384"/>
		</defs>
		<clipPath id="SVGID_8_">
			<use xlink:href="#SVGID_7_"  style="overflow:visible;"/>
		</clipPath>
		<rect x="49" y="-410" class="st3" width="70.4" height="78.2"/>
	</g>
</g>
<g>
	<defs>
		<polygon id="SVGID_9_" points="-31,-435 -31,-366.8 -0.8,-381 29.4,-366.8 29.4,-435 		"/>
	</defs>
	<clipPath id="SVGID_10_">
		<use xlink:href="#SVGID_9_"  style="overflow:visible;"/>
	</clipPath>
	<g class="st4">
		<defs>
			<rect id="SVGID_11_" x="-594" y="-714" width="1024" height="1384"/>
		</defs>
		<clipPath id="SVGID_12_">
			<use xlink:href="#SVGID_11_"  style="overflow:visible;"/>
		</clipPath>
		<rect x="-36" y="-440" class="st5" width="70.4" height="78.2"/>
	</g>
</g>
<polygon class="st6" points="1.3,1.4 1.3,11.7 5.9,9.5 10.5,11.7 10.5,1.4 "/>
</svg>
