<?xml version="1.0" encoding="utf-8"?>
<!-- Generator: Adobe Illustrator 21.1.0, SVG Export Plug-In . SVG Version: 6.00 Build 0)  -->
<svg version="1.1" id="Capa_1" xmlns="http://www.w3.org/2000/svg" xmlns:xlink="http://www.w3.org/1999/xlink" x="0px" y="0px"
	 viewBox="0 0 89.1 91.7" style="enable-background:new 0 0 89.1 91.7;" xml:space="preserve">
<style type="text/css">
	.st0{fill:none;}
	.st1{clip-path:url(#SVGID_2_);}
	.st2{clip-path:url(#SVGID_4_);}
	.st3{clip-path:url(#SVGID_6_);}
	.st4{fill-rule:evenodd;clip-rule:evenodd;fill:none;}
	.st5{clip-path:url(#SVGID_8_);}
	.st6{clip-path:url(#SVGID_10_);}
	.st7{clip-path:url(#SVGID_12_);}
	.st8{clip-path:url(#SVGID_14_);}
</style>
<rect x="-328.2" y="-508.5" class="st0" width="1024" height="1068"/>
<g>
	<g>
		<defs>
			<rect id="SVGID_1_" x="3.5" y="4.8" width="82.1" height="82.1"/>
		</defs>
		<clipPath id="SVGID_2_">
			<use xlink:href="#SVGID_1_"  style="overflow:visible;"/>
		</clipPath>
		<g class="st1">
			<defs>
				<path id="SVGID_3_" d="M84.2,76.7h-4.6V60.9c0-3.5-2.9-6.4-6.4-6.4h-2V38c0-3.2-2.6-5.7-5.7-5.7h-16V19c0-0.7-0.6-1.4-1.3-1.4
					h-2.3v-2c1.8-0.6,3.1-2.3,3.1-4.2c0-2.1-2.6-5.1-3.4-6c-0.3-0.3-0.6-0.4-1-0.4s-0.7,0.2-1,0.4c-0.8,0.9-3.4,3.9-3.4,6
					c0,2,1.3,3.7,3.1,4.2v2h-2.3c-0.7,0-1.3,0.6-1.3,1.4v13.3h-16c-3.2,0-5.7,2.6-5.7,5.7v11.9c0,0.7,0.6,1.4,1.3,1.4
					c0.7,0,1.3-0.6,1.3-1.4V38c0-1.7,1.4-3,3-3h42c1.7,0,3,1.4,3,3v16.5H19.1h-3.3c-3.5,0-6.4,2.9-6.4,6.4V72c0,0.7,0.6,1.4,1.3,1.4
					c0.7,0,1.3-0.6,1.3-1.4V60.9c0-2,1.7-3.7,3.7-3.7h3.3h50.8h3.3c2,0,3.7,1.7,3.7,3.7v15.8H10.8H4.9c-0.7,0-1.3,0.6-1.3,1.4
					c0,4.9,4,8.8,8.8,8.8h64.4c4.9,0,8.8-4,8.8-8.8C85.6,77.3,85,76.7,84.2,76.7z M44.5,8.4c1,1.3,1.7,2.5,1.7,3
					c0,1-0.8,1.7-1.7,1.7c-1,0-1.7-0.8-1.7-1.7C42.8,10.9,43.6,9.7,44.5,8.4z M42.2,32.2h4.6V20.3h-4.6V32.2z M76.8,84.2H12.3
					c-2.9,0-5.3-2-6-4.8h4.4h67.6h4.4C82.1,82.2,79.7,84.2,76.8,84.2z"/>
			</defs>
			<clipPath id="SVGID_4_">
				<use xlink:href="#SVGID_3_"  style="overflow:visible;"/>
			</clipPath>
			<g class="st2">
				<defs>
					<rect id="SVGID_5_" x="3.5" y="4.8" width="82.1" height="82.1"/>
				</defs>
				<clipPath id="SVGID_6_">
					<use xlink:href="#SVGID_5_"  style="overflow:visible;"/>
				</clipPath>
				<rect x="-8.9" y="-7.4" class="st3" width="106.9" height="106.8"/>
			</g>
		</g>
	</g>
	<rect x="3.5" y="5" class="st4" width="82.1" height="81.9"/>
	<g>
		<defs>
			<path id="SVGID_7_" d="M24.8,41.6c0.7,0,1.3,0.4,2.2,1.2c1,0.8,2.3,1.8,4.3,1.8h0c2,0,3.3-1,4.3-1.8c1-0.8,1.6-1.2,2.5-1.2
				c0.8,0,1.4,0.4,2.4,1.1c1.1,0.8,2.4,1.7,4.4,1.7h0c2,0,3.4-1,4.5-1.7c0.9-0.7,1.6-1.1,2.2-1.1c0,0,0,0,0,0c0.7,0,1.2,0.4,1.9,1.1
				c0.9,0.8,2,1.7,4,1.8c1.9,0,3.3-0.9,4.3-1.6c1-0.7,1.7-1.1,2.5-1.1c0.8,0,1.4-0.4,1.4-0.9c0-0.5-0.6-1-1.3-1
				c-2,0-3.3,0.9-4.4,1.7c-1,0.7-1.6,1.1-2.3,1.1c-0.7,0-1.2-0.4-1.9-1.1c-0.9-0.8-2-1.7-4-1.8c-1.9,0-3.2,0.8-4.3,1.6
				c-1,0.7-1.7,1.2-2.6,1.2h0c-0.8,0-1.5-0.4-2.5-1.2c-1-0.8-2.3-1.7-4.3-1.7c0,0,0,0,0,0c-2.1,0-3.4,1-4.4,1.9
				c-1,0.7-1.6,1.2-2.3,1.2h0c-0.7,0-1.4-0.5-2.3-1.2c-1-0.8-2.3-1.8-4.2-1.8h0c-0.8,0-1.4,0.4-1.4,1C23.4,41.2,24,41.6,24.8,41.6
				C24.8,41.6,24.8,41.6,24.8,41.6"/>
		</defs>
		<clipPath id="SVGID_8_">
			<use xlink:href="#SVGID_7_"  style="overflow:visible;"/>
		</clipPath>
		<g class="st5">
			<defs>
				<rect id="SVGID_9_" x="-645.5" y="-1303.2" width="2546.4" height="2655.9"/>
			</defs>
			<clipPath id="SVGID_10_">
				<use xlink:href="#SVGID_9_"  style="overflow:visible;"/>
			</clipPath>
			<rect x="11" y="27.2" class="st6" width="67.1" height="29.8"/>
		</g>
	</g>
	<g>
		<defs>
			<path id="SVGID_11_" d="M17.3,63.9c0.8,0,1.5,0.5,2.5,1.2c1.1,0.8,2.5,1.9,4.6,1.9h0c2.1,0,3.4-1,4.6-1.8
				c1.1-0.8,1.8-1.3,2.8-1.3h0c0.9,0,1.6,0.4,2.7,1.2c1.1,0.8,2.6,1.8,4.7,1.8h0c2.2,0,3.6-1,4.8-1.7c1.1-0.7,1.8-1.1,2.6-1.1
				c0.8,0,1.3,0.4,2.2,1.1c1,0.8,2.2,1.8,4.2,1.8c2,0,3.4-0.9,4.6-1.7c1-0.6,1.8-1.2,2.8-1.2c0.9,0,1.5,0.4,2.4,1.1
				c1,0.7,2.2,1.7,4.2,1.7c0,0,0,0,0,0c2.2,0,3.6-1,4.8-1.7c1.1-0.7,1.8-1.1,2.6-1.1c0.7,0,1.4-0.4,1.4-0.9c0-0.5-0.6-0.9-1.3-0.9
				c-2,0-3.4,0.9-4.5,1.6c-1,0.7-1.8,1.2-2.9,1.2c-0.8,0-1.4-0.4-2.3-1.1c-1-0.7-2.2-1.7-4.3-1.7c0,0-0.1,0-0.1,0
				c-2,0-3.5,1-4.6,1.7c-0.9,0.6-1.8,1.2-2.6,1.2c-0.8,0-1.3-0.4-2.2-1.1c-1-0.8-2.2-1.8-4.2-1.8c-2,0-3.4,0.9-4.5,1.6
				c-1,0.7-1.8,1.2-2.9,1.2h0c-1,0-1.7-0.5-2.8-1.2C35.2,63,33.9,62,31.8,62c0,0,0,0,0,0c-2.2,0-3.6,1.1-4.7,1.9
				c-1.1,0.8-1.8,1.3-2.6,1.3h0c-0.9,0-1.5-0.5-2.6-1.3c-1.1-0.8-2.4-1.8-4.5-1.8c-0.7,0-1.3,0.4-1.3,0.9
				C15.9,63.5,16.5,63.9,17.3,63.9C17.3,63.9,17.3,63.9,17.3,63.9"/>
		</defs>
		<clipPath id="SVGID_12_">
			<use xlink:href="#SVGID_11_"  style="overflow:visible;"/>
		</clipPath>
		<g class="st7">
			<defs>
				<rect id="SVGID_13_" x="-645.5" y="-1303.2" width="2546.4" height="2655.9"/>
			</defs>
			<clipPath id="SVGID_14_">
				<use xlink:href="#SVGID_13_"  style="overflow:visible;"/>
			</clipPath>
			<rect x="3.5" y="49.6" class="st8" width="84.5" height="29.8"/>
		</g>
	</g>
</g>
</svg>
