<?xml version="1.0" encoding="utf-8"?>
<!-- Generator: Adobe Illustrator 21.1.0, SVG Export Plug-In . SVG Version: 6.00 Build 0)  -->
<svg version="1.1" id="Capa_1" xmlns="http://www.w3.org/2000/svg" xmlns:xlink="http://www.w3.org/1999/xlink" x="0px" y="0px"
	 viewBox="0 0 20.8 20.2" style="enable-background:new 0 0 20.8 20.2;" xml:space="preserve">
<g>
	<path d="M1.1,17.5c0-4.1,0-8.3,0-12.4c0,0,0,0,0,0C1.3,3.9,2.4,2.9,4,3.2c0,0.2,0,0.4,0,0.6c0,0.6,0.5,1.1,1.1,1.1
		c0.4,0,0.8,0,1.1,0c0.8,0,1.2-0.5,1.2-1.2c0-0.2,0-0.3,0-0.5c2,0,3.9,0,5.8,0c0,0.2,0,0.4,0,0.5c0,0.7,0.5,1.2,1.2,1.2
		c0.3,0,0.7,0,1,0c0.8,0,1.3-0.5,1.3-1.3c0-0.1,0-0.3,0-0.5c0.2,0,0.4,0,0.6,0c1.3,0,2.3,1,2.3,2.3c0,3.9,0,7.8,0,11.7
		c0,1-0.6,1.9-1.6,2.2c-0.1,0-0.2,0.1-0.3,0.1c-4.9,0-9.8,0-14.7,0c0,0-0.1,0-0.1,0c-0.9-0.2-1.5-0.7-1.8-1.6
		C1.1,17.7,1.1,17.6,1.1,17.5z M10.4,18.3c2.3,0,4.6,0,6.9,0c0.8,0,1.3-0.5,1.3-1.3c0-3,0-6,0-9.1c0-0.8-0.5-1.3-1.3-1.3
		c-4.6,0-9.2,0-13.7,0c-0.1,0-0.3,0-0.4,0.1C2.6,6.8,2.3,7.3,2.3,7.8c0,3.1,0,6.2,0,9.3c0,0,0,0,0,0.1c0,0.3,0.1,0.5,0.3,0.7
		c0.3,0.3,0.6,0.4,1,0.4C5.8,18.3,8.1,18.3,10.4,18.3z"/>
	<path d="M6.9,2.6c0,0.4,0,0.8,0,1.1c0,0.4-0.2,0.6-0.6,0.6c-0.4,0-0.8,0-1.1,0c-0.4,0-0.6-0.2-0.6-0.6c0-0.8,0-1.5,0-2.3
		c0-0.3,0.2-0.6,0.6-0.6c0.4,0,0.8,0,1.2,0c0.3,0,0.6,0.2,0.6,0.6C6.9,1.8,6.9,2.2,6.9,2.6z"/>
	<path d="M16.2,2.6c0,0.4,0,0.8,0,1.1c0,0.4-0.2,0.6-0.6,0.6c-0.4,0-0.8,0-1.1,0c-0.3,0-0.6-0.2-0.6-0.6c0-0.8,0-1.6,0-2.3
		c0-0.3,0.2-0.6,0.6-0.6c0.4,0,0.8,0,1.2,0c0.3,0,0.6,0.2,0.6,0.6C16.2,1.8,16.2,2.2,16.2,2.6z"/>
	<path d="M6.9,10.1c0,0.2,0,0.4,0,0.6c0,0.3-0.2,0.6-0.6,0.6c-0.4,0-0.8,0-1.2,0c-0.3,0-0.6-0.2-0.6-0.6c0-0.4,0-0.8,0-1.2
		C4.6,9.2,4.8,9,5.1,9c0.4,0,0.8,0,1.2,0c0.3,0,0.6,0.2,0.6,0.6C6.9,9.7,6.9,9.9,6.9,10.1z"/>
	<path d="M10.4,11.3c-0.2,0-0.4,0-0.6,0c-0.3,0-0.6-0.2-0.6-0.6c0-0.4,0-0.8,0-1.2C9.2,9.2,9.5,9,9.8,9c0.4,0,0.8,0,1.2,0
		c0.3,0,0.6,0.2,0.6,0.6c0,0.4,0,0.8,0,1.2c0,0.3-0.2,0.6-0.6,0.6C10.8,11.3,10.6,11.3,10.4,11.3z"/>
	<path d="M16.2,10.1c0,0.2,0,0.4,0,0.6c0,0.3-0.2,0.6-0.6,0.6c-0.4,0-0.8,0-1.2,0c-0.3,0-0.6-0.2-0.6-0.6c0-0.4,0-0.8,0-1.2
		c0-0.3,0.2-0.6,0.6-0.6c0.4,0,0.8,0,1.2,0c0.3,0,0.6,0.2,0.6,0.6C16.2,9.7,16.2,9.9,16.2,10.1z"/>
	<path d="M6.9,14.8c0,0.2,0,0.4,0,0.6c0,0.3-0.2,0.6-0.6,0.6c-0.4,0-0.8,0-1.2,0c-0.3,0-0.6-0.2-0.6-0.6c0-0.4,0-0.8,0-1.2
		c0-0.3,0.2-0.6,0.6-0.6c0.4,0,0.8,0,1.2,0c0.3,0,0.6,0.2,0.6,0.6C6.9,14.4,6.9,14.6,6.9,14.8z"/>
	<path d="M10.4,13.6c0.2,0,0.4,0,0.6,0c0.3,0,0.6,0.2,0.6,0.6c0,0.4,0,0.8,0,1.2c0,0.3-0.2,0.6-0.6,0.6c-0.4,0-0.8,0-1.2,0
		c-0.3,0-0.6-0.2-0.6-0.6c0-0.4,0-0.8,0-1.2c0-0.3,0.2-0.6,0.6-0.6C10,13.6,10.2,13.6,10.4,13.6z"/>
	<path d="M16.2,14.8c0,0.2,0,0.4,0,0.6c0,0.3-0.2,0.6-0.6,0.6c-0.4,0-0.8,0-1.2,0c-0.3,0-0.6-0.2-0.6-0.6c0-0.4,0-0.8,0-1.2
		c0-0.3,0.2-0.6,0.6-0.6c0.4,0,0.8,0,1.2,0c0.3,0,0.6,0.2,0.6,0.6C16.2,14.4,16.2,14.6,16.2,14.8z"/>
</g>
</svg>
