<?xml version="1.0" encoding="utf-8"?>
<!-- Generator: Adobe Illustrator 21.1.0, SVG Export Plug-In . SVG Version: 6.00 Build 0)  -->
<svg version="1.1" id="Capa_1" xmlns="http://www.w3.org/2000/svg" xmlns:xlink="http://www.w3.org/1999/xlink" x="0px" y="0px"
	 viewBox="0 0 20.8 20.2" style="enable-background:new 0 0 20.8 20.2;" xml:space="preserve">
<path d="M19.4,6.5c-0.1,0.1-0.3,0.2-0.4,0.3c-1.4,0.7-2.1,2-1.9,3.5c0.6,3.4-1.9,6.4-5.3,6.6c-1.4,0.1-2.8,0-4.2,0
	c-3.1-0.2-5.8-2.8-6.1-5.8c0-0.1,0-0.2-0.1-0.3c0-0.4,0-0.9,0-1.3c0.1-0.6,0.2-1.1,0.4-1.7c1.1-3,4-4.7,7.2-4.4
	c3,0.3,5.5,2.7,5.9,5.8c0.4,2.8-0.7,5.1-3,6.7c-0.1,0.1-0.3,0.2-0.4,0.3c0,0,0,0-0.1,0.1c0.6-0.1,1-0.1,1.5-0.2
	c2.4-0.6,3.9-3,3.5-5.4c-0.3-1.9,0.6-3.7,2.3-4.4C18.9,6,19.2,6,19.4,6.2C19.4,6.3,19.4,6.4,19.4,6.5z M4,14.5
	c0.2,0.2,0.4,0.4,0.6,0.5c0.3,0.2,0.6,0.4,1,0.6c0.2,0.1,0.5,0.1,0.7,0.1c3.9-1.3,6.3-4,7.1-8c0-0.2,0.1-0.4,0-0.5
	c-0.3-0.6-0.8-1.2-1.4-1.6C12.3,10.2,8.8,14.2,4,14.5z M3.7,5.9C4.1,6.5,4.4,7,4.8,7.5C6,9,7.6,10.1,9.4,10.6c0.1,0,0.3,0,0.4,0
	c0.5-0.7,0.9-1.5,1.1-2.3C8.5,8,6.8,6.6,5.7,4.5C5,5,4.3,5.5,3.7,5.9z M3.2,6.6c-0.5,0.8-0.9,1.6-1,2.4c0,0.1,0,0.3,0.1,0.4
	c1.2,1.5,2.6,2.6,4.2,3.5c0.1,0,0.2,0.1,0.3,0c0.8-0.4,1.6-0.9,2.3-1.7C6.6,10.5,4.7,8.9,3.2,6.6z M6.4,4.3c0.8,1.8,3,3.3,4.7,3.2
	c0-0.1,0.1-0.1,0.1-0.2c0-0.3,0.1-0.7,0.1-1c-0.1-1.7,0.2-1.5-1.5-2C8.7,3.9,7.6,3.9,6.4,4.3z M14.1,8.6c-0.5,1.7-1.2,3.2-2.4,4.5
	c-1.1,1.3-2.5,2.3-4.2,3C11.7,16.6,15.1,12.8,14.1,8.6z M5.8,13.5c-1.3-1-2.4-2-3.6-2.9c0.1,1.1,0.4,2.1,1.1,3
	c0.1,0.1,0.2,0.2,0.3,0.1C4.3,13.7,5,13.6,5.8,13.5z"/>
</svg>
