<?xml version="1.0" encoding="utf-8"?>
<!-- Generator: Adobe Illustrator 21.1.0, SVG Export Plug-In . SVG Version: 6.00 Build 0)  -->
<svg version="1.1" id="Capa_1" xmlns="http://www.w3.org/2000/svg" xmlns:xlink="http://www.w3.org/1999/xlink" x="0px" y="0px"
	 viewBox="0 0 126.9 204.9" style="enable-background:new 0 0 126.9 204.9;" xml:space="preserve">
<style type="text/css">
	.st0{clip-path:url(#SVGID_2_);enable-background:new    ;}
	.st1{clip-path:url(#SVGID_4_);}
	.st2{clip-path:url(#SVGID_6_);}
	.st3{clip-path:url(#SVGID_8_);fill:#070308;}
	.st4{clip-path:url(#SVGID_10_);}
	.st5{clip-path:url(#SVGID_12_);fill:#070308;}
	.st6{clip-path:url(#SVGID_14_);}
	.st7{clip-path:url(#SVGID_16_);fill:#070308;}
	.st8{clip-path:url(#SVGID_18_);}
	.st9{clip-path:url(#SVGID_20_);fill:#070308;}
</style>
<g>
	<defs>
		<rect id="SVGID_1_" x="-3961.1" y="-3242.9" width="6299.1" height="6569.8"/>
	</defs>
	<clipPath id="SVGID_2_">
		<use xlink:href="#SVGID_1_"  style="overflow:visible;"/>
	</clipPath>
	<g class="st0">
		<g>
			<defs>
				<rect id="SVGID_3_" x="12.7" y="5.1" width="104.6" height="184.5"/>
			</defs>
			<clipPath id="SVGID_4_">
				<use xlink:href="#SVGID_3_"  style="overflow:visible;"/>
			</clipPath>
			<g class="st1">
				<defs>
					<path id="SVGID_5_" d="M12.7,178.9V16.2c0.1-0.2,0.3-0.5,0.3-0.7c1.7-6.3,6.2-9.9,12.6-9.9c25.4,0,50.8,0,76.2,0
						c1.7,0,3.5,0.3,5,0.9c5.6,2.4,7.9,7,7.9,12.9c0,52.1,0,104.3,0,156.4c0,0.6,0,1.1,0,1.6c-0.4,7.1-5.7,12.1-12.7,12.1
						c-25.6,0-51.2,0-76.8,0c-5.4,0-9.9-3.3-11.6-8.4C13.3,180.4,13,179.6,12.7,178.9 M109.9,97.6c0-26.1,0-52.2,0-78.2
						c0-6-2.9-8.9-8.9-8.9c-24.8,0-49.6,0-74.4,0c-6,0-8.9,2.9-8.9,9v156.3c0,6.2,2.9,9.1,9,9.1c24.7,0,49.3,0,74,0
						c6.4,0,9.2-2.8,9.2-9.3C109.9,149.5,109.9,123.5,109.9,97.6"/>
				</defs>
				<clipPath id="SVGID_6_">
					<use xlink:href="#SVGID_5_"  style="overflow:visible;"/>
				</clipPath>
				<g class="st2">
					<defs>
						<rect id="SVGID_7_" x="12.7" y="5.1" width="104.6" height="184.5"/>
					</defs>
					<clipPath id="SVGID_8_">
						<use xlink:href="#SVGID_7_"  style="overflow:visible;"/>
					</clipPath>
					<rect x="-18" y="-25.3" class="st3" width="163.5" height="245.6"/>
				</g>
			</g>
		</g>
	</g>
</g>
<g>
	<defs>
		<path id="SVGID_9_" d="M105,98.5c0,22.6,0,45.2,0,67.8c0,2.8-0.1,2.9-2.8,2.9c-24.8,0-49.7,0-74.5,0c-2.6,0-2.7-0.1-2.7-2.7
			c0-45.3,0-90.6,0-136c0-2.7,0-2.8,2.7-2.8c24.9,0,49.8,0,74.7,0c2.5,0,2.6,0.1,2.6,2.6C105,53,105,75.8,105,98.5z M27.4,98.2
			c0,21.3,0,42.6,0,63.9c0,3.6,0.9,4.6,4.3,4.6c22.2,0,44.4,0,66.6,0c3.4,0,4.4-1,4.4-4.5c0-42.5,0-84.9,0-127.4
			c0-3.7-0.9-4.6-4.4-4.6c-22.1,0-44.2,0-66.4,0c-3.6,0-4.4,0.9-4.4,4.6V98.2z"/>
	</defs>
	<clipPath id="SVGID_10_">
		<use xlink:href="#SVGID_9_"  style="overflow:visible;"/>
	</clipPath>
	<g class="st4">
		<defs>
			<rect id="SVGID_11_" x="-3961.1" y="-3244.9" width="6299.1" height="6569.8"/>
		</defs>
		<clipPath id="SVGID_12_">
			<use xlink:href="#SVGID_11_"  style="overflow:visible;"/>
		</clipPath>
		<rect x="-5.7" y="-3.1" class="st5" width="141.5" height="203"/>
	</g>
</g>
<g>
	<defs>
		<path id="SVGID_13_" d="M61.9,183.4c-2.2,0-4.4,0-6.6,0c-3.5-0.1-5.7-2.4-5.7-6.1c0-3.7,2.1-6,5.7-6.1c4.4-0.1,8.8-0.1,13.3,0
			c3.6,0.1,5.7,2.4,5.7,6.1c0,3.8-2.1,6-5.7,6.1c-0.1,0-0.3,0-0.4,0C66.1,183.4,64,183.4,61.9,183.4 M62.1,180.8c2,0,4,0,6,0
			c2.6,0,3.7-1,3.7-3.3c0-2.5-1-3.6-3.7-3.6c-4.2,0-8.4,0-12.6,0c-2.3,0-3.4,1.2-3.4,3.4c0,2.3,1,3.4,3.4,3.5
			C57.7,180.8,59.9,180.8,62.1,180.8"/>
	</defs>
	<clipPath id="SVGID_14_">
		<use xlink:href="#SVGID_13_"  style="overflow:visible;"/>
	</clipPath>
	<g class="st6">
		<defs>
			<rect id="SVGID_15_" x="-3961.1" y="-3242.9" width="6299.1" height="6569.8"/>
		</defs>
		<clipPath id="SVGID_16_">
			<use xlink:href="#SVGID_15_"  style="overflow:visible;"/>
		</clipPath>
		<rect x="18.9" y="140.4" class="st7" width="86.1" height="73.8"/>
	</g>
</g>
<g>
	<defs>
		<path id="SVGID_17_" d="M65.1,20c-2.4,0-4.9,0.1-7.3-0.1c-0.7,0-1.3-0.7-1.9-1.1c0.7-0.5,1.3-1.4,2-1.4c4.9-0.1,9.8-0.1,14.7,0
			c0.6,0,1.2,0.9,1.8,1.3c-0.6,0.4-1.2,1.2-1.8,1.2C70,20.1,67.5,20,65.1,20"/>
	</defs>
	<clipPath id="SVGID_18_">
		<use xlink:href="#SVGID_17_"  style="overflow:visible;"/>
	</clipPath>
	<g class="st8">
		<defs>
			<rect id="SVGID_19_" x="-3961.1" y="-3242.9" width="6299.1" height="6569.8"/>
		</defs>
		<clipPath id="SVGID_20_">
			<use xlink:href="#SVGID_19_"  style="overflow:visible;"/>
		</clipPath>
		<rect x="25" y="-13.4" class="st9" width="80" height="64.2"/>
	</g>
</g>
</svg>
