<?xml version="1.0" encoding="utf-8"?>
<!-- Generator: Adobe Illustrator 21.1.0, SVG Export Plug-In . SVG Version: 6.00 Build 0)  -->
<svg version="1.1" id="Capa_1" xmlns="http://www.w3.org/2000/svg" xmlns:xlink="http://www.w3.org/1999/xlink" x="0px" y="0px"
	 viewBox="0 0 499.1 500.4" style="enable-background:new 0 0 499.1 500.4;" xml:space="preserve">
<style type="text/css">
	.st0{fill:none;}
</style>
<rect x="-283.6" y="-306.8" class="st0" width="1024" height="1126"/>
<rect x="-255.7" y="-306.8" class="st0" width="1024" height="1126"/>
<g>
	<path d="M89.6,365.1c-9.4,9.4-9.4,24.6,0,34c4.5,4.5,10.6,7,17,7s12.5-2.5,17-7c9.4-9.4,9.4-24.6,0-34c-4.5-4.5-10.6-7-17-7
		C100.2,358.1,94.2,360.6,89.6,365.1L89.6,365.1z M114,389.5c-2,2-4.6,3.1-7.4,3.1c-2.8,0-5.4-1.1-7.4-3.1c-4.1-4.1-4.1-10.7,0-14.8
		c2-2,4.6-3.1,7.4-3.1c2.8,0,5.4,1.1,7.4,3.1C118.1,378.8,118.1,385.4,114,389.5L114,389.5z M114,389.5"/>
	<path d="M440.5,82h-24.9c-3.2-10.1-12.6-17.4-23.8-17.4c-13.8,0-24.9,11.2-24.9,24.9c0,13.8,11.2,24.9,24.9,24.9
		c11.7,0,21.5-8,24.2-18.9h17.6V157c0,46.3-37.7,83.9-83.9,83.9s-83.9-37.7-83.9-83.9V95.6H282c2.7,10.8,12.5,18.9,24.2,18.9
		c13.8,0,24.9-11.2,24.9-24.9c0-13.8-11.2-24.9-24.9-24.9c-11.1,0-20.6,7.3-23.8,17.4H259c-3.8,0-6.8,3-6.8,6.8V157
		c0,51.5,40.1,93.8,90.7,97.3v42.7c0,29.8-24.2,54-54.1,54c-29.6,0-53.7-24.6-53.7-54.9V190.8c0-37.3-30.3-67.6-67.4-67.6
		c-37.3,0-67.6,30.3-67.6,67.6v137C73,331.1,52,354.2,52,382.1c0,30.1,24.5,54.7,54.7,54.7c30.2,0,54.7-24.5,54.7-54.7
		c0-27.7-20.8-50.7-47.6-54.2V190.8c0-29.8,24.3-54,54.1-54c29.7,0,53.9,24.2,53.9,54v105.3c0,37.8,30.2,68.5,67.2,68.5
		c37.3,0,67.6-30.3,67.6-67.6v-42.7c50.6-3.5,90.8-45.8,90.8-97.3V88.8C447.3,85,444.3,82,440.5,82L440.5,82z M391.9,100.9
		c-6.3,0-11.3-5.1-11.3-11.3c0-6.3,5.1-11.3,11.3-11.3c6.3,0,11.3,5.1,11.3,11.3C403.2,95.8,398.1,100.9,391.9,100.9L391.9,100.9z
		 M306.2,78.2c6.3,0,11.3,5.1,11.3,11.3c0,6.3-5.1,11.3-11.3,11.3c-6.3,0-11.3-5.1-11.3-11.3C294.9,83.3,300,78.2,306.2,78.2
		L306.2,78.2z M147.7,382.1c0,22.7-18.4,41.1-41.1,41.1c-22.6,0-41.1-18.4-41.1-41.1c0-22.7,18.4-41.1,41.1-41.1
		C129.3,341,147.7,359.5,147.7,382.1L147.7,382.1z M147.7,382.1"/>
</g>
</svg>
