<?xml version="1.0" encoding="utf-8"?>
<!-- Generator: Adobe Illustrator 21.1.0, SVG Export Plug-In . SVG Version: 6.00 Build 0)  -->
<svg version="1.1" id="Capa_1" xmlns="http://www.w3.org/2000/svg" xmlns:xlink="http://www.w3.org/1999/xlink" x="0px" y="0px"
	 viewBox="0 0 199 253.2" style="enable-background:new 0 0 199 253.2;" xml:space="preserve">
<style type="text/css">
	.st0{fill:#FFFFFF;}
</style>
<g id="Background">
</g>
<g id="Designed_by_Freepik">
</g>
<g>
	<path class="st0" d="M44.5,7.3c2,0.5,4,0.9,6,1.5c2.8,0.8,4.1,2.5,3.5,4.6c-0.6,2.2-2.4,3-5.3,2.2C40.6,13.2,33,14.2,26.1,19
		c-8.8,6-12.8,14.5-11.7,25c1.2,10.5,7,17.9,16.8,21.9c10.8,4.3,22,1.5,29.7-7.1c7.2-8,8.8-20.3,3.7-30c-1.4-2.7-3.7-5-5.6-7.4
		c-1.6-2-1.6-4.2,0.3-5.5c1.8-1.2,3.4-0.7,4.8,0.7c4.2,4.1,7.4,8.8,8.9,14.5c0.5,1.8,1.2,2.4,3.2,2.4c13.7-0.1,27.5-0.1,41.2,0
		c1.3,0,3,0.5,3.9,1.4c13.4,13.1,26.6,26.3,39.8,39.5c0.8,0.8,1.2,2.4,1.2,3.6c0.1,9.6,0.1,19.3,0.1,28.9c0,0.9,0,1.9,0,3
		c1,0,1.8,0.1,2.6,0.1c5.5,0,11,0,16.5,0c7.5,0.1,11.6,4.3,11.6,11.8c0,37.1,0,74.2,0,111.4c0,1.8-0.1,3.8-0.7,5.5
		c-1.5,4-4.2,6.6-8.8,6.7c-5,0.1-10.1,0.4-15.1,0.4c-50.2,0-100.5,0-150.7,0c-3.9,0-7.4-1-9.9-4.2c-1.8-2.3-2.2-5-2.2-7.9
		c0-22.5,0-45,0-67.6c0-14.6,0-29.2,0-43.8c0-8,3.6-11.9,11.6-12.3c4.7-0.2,9.5,0,14.2,0c0.8,0,1.7,0,2.6,0c0.1-0.9,0.2-1.6,0.2-2.3
		c0-10.5,0-21,0.1-31.5c0-1.6-0.4-2.2-2-2.7c-16-4.2-26.1-18.6-25.1-35.4C8.2,23,20.6,10,36.5,7.7c0.4-0.1,0.7-0.2,1.1-0.4
		C39.9,7.3,42.2,7.3,44.5,7.3z M41.6,74.9c-0.1,0.6-0.2,0.9-0.2,1.3c0,19.9,0,39.8,0,59.6c0,0.8,0.5,1.8,1.1,2.3
		c16.3,13.7,32.6,27.3,49,40.9c5.1,4.2,10.8,4.2,15.9,0c15.7-13,31.3-26,46.9-39.1c0.7-0.6,1.1-2,1.2-3c0.1-17.9,0-35.9,0-53.8
		c0-0.8,0-1.5,0-2.5c-1.2,0-2.1,0-3,0c-8.5,0-17.1,0-25.6,0c-7.5,0-11.5-4.1-11.5-11.5c0-8.7,0-17.4,0-26.1c0-0.8,0-1.6,0-2.4
		c-13.8,0-27.1,0-40.7,0C74.6,50,71.4,58,65.1,64.6C58.7,71.2,50.7,74.4,41.6,74.9z M181.6,238.8c-0.8-0.8-1.3-1.2-1.7-1.6
		c-11.5-9.6-23-19.2-34.5-28.8c-0.6-0.5-1.2-1-1.7-1.6c-1.2-1.4-1.3-3-0.1-4.5c1.2-1.5,2.8-1.7,4.4-0.8c1,0.6,1.9,1.4,2.8,2.1
		c11.3,9.4,22.5,18.8,33.8,28.2c0.5,0.4,1,0.8,1.7,1.2c0-36.9,0-73.5,0-110.6c-22.2,18.6-44.2,36.9-66.2,55.4
		c4.3,3.6,8.4,7,12.4,10.4c2.1,1.8,4.3,3.6,6.4,5.4c1.9,1.7,2.2,3.7,0.8,5.3c-1.3,1.6-3.2,1.6-5.2,0.1c-0.4-0.3-0.8-0.7-1.3-1
		c-5.2-4.3-10.4-8.7-15.5-13c-1-0.9-2.1-1.7-3.1-2.6c-10.1,9.1-20.1,8.7-29.9,0c-22.3,18.7-44.4,37.2-67,56.2
		C72.5,238.8,126.8,238.8,181.6,238.8z M13,122.5c0,37.1,0,73.9,0,110.9c22.2-18.6,44.1-37,66.2-55.5C57,159.4,35.1,141.1,13,122.5z
		 M149.4,73.6c-9.1-9.1-18.2-18.2-27.1-27.1c0,7.6,0,15.6,0,23.6c0,2.1,1.1,3.5,3.2,3.5C133.6,73.7,141.7,73.6,149.4,73.6z
		 M162.6,133.1c6.4-5.4,12.4-10.4,18.8-15.8c-6.7,0-12.7,0-18.8,0C162.6,122.5,162.6,127.5,162.6,133.1z M34.3,131.2
		c0-5,0-9.4,0-13.9c-5.5,0-10.8,0-16.6,0C23.3,122.1,28.6,126.5,34.3,131.2z"/>
	<path class="st0" d="M37.8,44.9c4-3.9,7.8-7.7,11.7-11.5c0.7-0.6,1.3-1.3,2.1-1.8c1.5-1,3.3-0.7,4.1,0.7c0.6,1.1,0.5,2.7,0.4,4
		c0,0.6-0.8,1.1-1.3,1.6c-4.5,4.5-9,8.9-13.6,13.4c-2.4,2.4-3.9,2.4-6.4,0.2c-2.3-2.1-4.6-4.2-6.8-6.3c-1.9-1.8-2.1-3.7-0.6-5.3
		c1.4-1.5,3.5-1.5,5.4,0.2C34.4,41.7,36,43.2,37.8,44.9z"/>
	<path class="st0" d="M107.3,141.6c-8.5,0-16.9,0-25.4,0c-0.9,0-1.7,0-2.5-0.2c-1.7-0.4-2.9-1.7-2.5-3.4c0.3-1.2,1.5-2.3,2.5-3.2
		c0.5-0.4,1.6-0.2,2.5-0.2c17,0,34,0,51,0c0.6,0,1.3,0,1.9,0.1c1.9,0.3,3.1,1.4,3.2,3.4c0.1,1.9-1.3,3.4-3.3,3.5
		c-2.2,0.1-4.5,0.1-6.8,0.1C121,141.6,114.1,141.6,107.3,141.6z"/>
	<path class="st0" d="M107.3,119.7c-8.7,0-17.4,0.1-26.1-0.1c-1.3,0-2.8-0.5-3.7-1.4c-1.6-1.6-0.8-4.3,1.4-5.1c0.9-0.3,2-0.4,3-0.4
		c17,0,34,0,51,0c0.5,0,0.9,0,1.4,0c2.4,0.2,3.7,1.6,3.6,3.7c-0.1,2-1.5,3.2-3.8,3.2C125.1,119.7,116.2,119.7,107.3,119.7z"/>
	<path class="st0" d="M107.3,97.9c-8.5,0-17.1,0-25.6,0c-0.8,0-1.8,0.2-2.3-0.2c-1-0.9-2.4-2-2.5-3.1c-0.1-1,1-2.4,2-3.2
		c0.6-0.5,1.9-0.4,2.9-0.4c17,0,34,0,51,0c0.9,0,1.9,0.1,2.8,0.3c1.7,0.5,2.4,1.8,2.3,3.6c-0.2,1.7-1.1,2.7-2.8,2.9
		c-1.1,0.1-2.2,0.1-3.3,0.1C123.6,97.9,115.5,97.9,107.3,97.9C107.3,97.9,107.3,97.9,107.3,97.9z"/>
	<path class="st0" d="M64.3,119.7c-3.6,0-5.3-1.1-5.3-3.4c-0.1-2.4,1.7-3.6,5.4-3.6c0.8,0,1.6,0,2.3,0.2c1.8,0.4,2.8,1.6,2.7,3.5
		c-0.1,1.9-1.3,3.1-3.3,3.3C65.6,119.7,64.9,119.7,64.3,119.7z"/>
	<path class="st0" d="M64.3,141.6c-0.5,0-1.1,0-1.6,0c-2.2-0.2-3.6-1.5-3.7-3.4c0-1.9,1.4-3.3,3.6-3.5c1.1-0.1,2.2-0.1,3.2,0
		c2.2,0.1,3.6,1.5,3.7,3.4c0,2-1.5,3.4-3.8,3.5C65.2,141.6,64.7,141.6,64.3,141.6z"/>
	<path class="st0" d="M64.2,97.8c-3.5,0-5.2-1.1-5.2-3.4c0-2.4,1.7-3.5,5.2-3.5c0.5,0,1.1,0,1.6,0c2.3,0.3,3.7,1.7,3.6,3.7
		c-0.1,1.9-1.5,3.1-3.8,3.2C65.2,97.9,64.7,97.8,64.2,97.8z"/>
</g>
</svg>
