<?xml version="1.0" encoding="utf-8"?>
<!-- Generator: Adobe Illustrator 21.1.0, SVG Export Plug-In . SVG Version: 6.00 Build 0)  -->
<svg version="1.1" id="Capa_1" xmlns="http://www.w3.org/2000/svg" xmlns:xlink="http://www.w3.org/1999/xlink" x="0px" y="0px"
	 viewBox="0 0 499.1 500.4" style="enable-background:new 0 0 499.1 500.4;" xml:space="preserve">
<style type="text/css">
	.st0{fill:none;}
</style>
<rect x="-283.6" y="-306.8" class="st0" width="1024" height="1126"/>
<rect x="-255.7" y="-306.8" class="st0" width="1024" height="1126"/>
<path d="M316.3,241.7c26.9-31.4,43.7-77.1,43.7-111.6c0-61.2-49.7-110.9-110.9-110.9S138.2,68.9,138.2,130.1
	c0,34.6,16.8,80.2,43.7,111.6C19.2,296.4,36.2,446.9,43.4,477.6h411.5C479.1,372.5,414.9,270.5,316.3,241.7z M249.1,34
	c38.9,0,72.4,23.2,87.4,56.5c-36.9,25.2-74.4-3.2-74.4-3.2c-26.2-15.2-59-13.8-83.7,3.5l-22.4,15.7C166.6,65,204.3,34,249.1,34z
	 M153.2,126.6l33.7-23.7c20-14.1,46.7-15.2,67.8-2.9c0,0,41.2,31.6,87,4.8c2.2,8,3.5,16.5,3.5,25.3c0,52.5-43,133.1-96.1,133.1
	s-96.1-80.5-96.1-133C153,129,153.1,127.8,153.2,126.6z M442.6,462.8H55.7C44.5,393.4,73,326.7,125.3,286.6
	c3.2,20.8,9.3,40.7,18.4,59.6c-22.8,14.3-33.6,43.1-24.3,69.6l12.3,34.8l27.9-9.8l-4.9-14l-14,4.9l-7.4-20.9
	c-8.1-23.1,4.1-48.5,27.2-56.6c23-8.1,48.5,4.1,56.6,27.2l7.3,20.9l-14,4.9l4.9,14l27.9-9.8l-12.3-34.9
	c-10.6-30.3-43.6-46.5-73.9-36.6c-9.6-19.9-15.7-41-18.1-62.9c16.4-10.4,34.8-18.3,54.8-23.3c16.2,14.7,34.9,24.1,55.4,24.1
	s39.3-9.4,55.4-24.1c23.3,5.8,44.5,15.6,62.9,28.8c-4.3,19.7-11.5,38.3-21.7,55.7c-2.5-0.7-5.1-1.3-7.9-1.3
	c-16.3,0-29.6,13.3-29.6,29.6c0,16.3,13.3,29.6,29.6,29.6c16.3,0,29.6-13.3,29.6-29.6c0-8.2-3.3-15.6-8.8-21
	c9.7-16.7,16.9-34.4,21.7-53.1C427.9,333.3,453.1,396.9,442.6,462.8z M352.6,366.7c0,8.1-6.7,14.8-14.8,14.8s-14.8-6.6-14.8-14.8
	c0-8.2,6.7-14.8,14.8-14.8C346,351.9,352.6,358.6,352.6,366.7z"/>
</svg>
