<?xml version="1.0" encoding="utf-8"?>
<!-- Generator: Adobe Illustrator 21.1.0, SVG Export Plug-In . SVG Version: 6.00 Build 0)  -->
<svg version="1.1" id="Layer_1" xmlns="http://www.w3.org/2000/svg" xmlns:xlink="http://www.w3.org/1999/xlink" x="0px" y="0px"
	 viewBox="0 0 500 273" style="enable-background:new 0 0 500 273;" xml:space="preserve">
<style type="text/css">
	.st0{fill:#FFFFFF;}
</style>
<g id="XMLID_1_">
	<path id="XMLID_3_" class="st0" d="M129.1,200.9c-15.3-3.4-25.4-14.7-27.5-30.7l-0.3-2.3h34.2h34.2l-0.3,3.1
		c-0.4,4.5-2.6,10.7-5.2,14.7c-4.7,7.2-13,13.1-20.9,14.8C140.2,201.2,131.4,201.4,129.1,200.9L129.1,200.9z"/>
	<path id="XMLID_4_" class="st0" d="M336.9,169.4c-5.9-0.7-10.6-2.5-14.5-5.7c-3.8-3.1-6.6-9.6-6.6-15.3v-2.6h6.8h6.8l0.5,3.2
		c0.7,4,2.1,6.3,5,8c2,1.2,2.8,1.3,6.2,1.3c8,0,13.4-4.6,12.2-10.2c-0.8-3.8-4-5.9-12.5-8.1c-6.6-1.7-10.1-3.2-14.1-5.9
		c-3.8-2.6-6.7-6-8-9.4c-1.5-3.9-1.2-9.9,0.7-13.9c2.6-5.5,9.2-10.4,16.6-12.2c4.2-1,12.4-0.8,15.9,0.5c8.1,2.9,13.3,9.3,14.3,17.5
		l0.3,2.7h-6.7c-7.3,0-6.7,0.3-7.5-3.2c-0.9-3.9-3.8-6.3-8.5-6.9c-9.3-1.2-15.5,8-9.3,13.9c1.8,1.8,3.2,2.3,12.1,5.1
		c11.8,3.6,16.7,6.6,19.5,12c1.2,2.3,1.3,2.9,1.3,8.4c0,5.7-0.1,6-1.6,9.1c-3.5,7.1-11.1,11.2-22,11.8
		C341.8,169.6,338.6,169.6,336.9,169.4L336.9,169.4z"/>
	<path id="XMLID_5_" class="st0" d="M264.1,144.3c-5.6-13.1-10.4-24-10.6-24.2c-0.3-0.3-0.5,8.8-0.5,23.4v23.9l-7.2-0.1l-7.2-0.1
		l-0.1-34l-0.1-34l10.8-0.1c6.8-0.1,11,0,11.2,0.3c0.2,0.3,3.4,8.1,7.1,17.3c3.7,9.3,6.8,16.7,6.9,16.6c0.1-0.1,3.2-7.8,7-17.1
		l6.8-16.9l11.1-0.1l11.1-0.1v34.1v34.1H303h-7.4v-23.8c0-13.1-0.2-23.8-0.4-23.8c-0.2,0-4.5,9.8-9.6,21.7
		c-5.1,11.9-9.7,22.8-10.3,24.1l-1.1,2.4L264.1,144.3z"/>
	<path id="XMLID_6_" class="st0" d="M97,166.9c-7.8-1-14-4.1-19.4-9.5c-7.8-7.9-10.7-15.8-10-27c0.5-8.2,3.3-14.5,9-20.5
		c6-6.3,12.9-9.7,21-10.4l3.7-0.4v2.4c0,5.7,3.1,13.7,7.6,19.4c4.2,5.3,11.8,10,18.8,11.6l3.8,0.9l-2.4,0.4
		c-7.1,1.1-16,6.5-20.6,12.5c-4.4,5.7-6.5,10.9-7.1,17.2C101.1,167.6,101.3,167.5,97,166.9z"/>
	<path id="XMLID_7_" class="st0" d="M170.1,165.5c0-3.6-1.5-8.8-3.7-13.3c-2.7-5.5-6.9-10.2-12.2-13.7c-3.9-2.6-10.3-5-13.3-5.1
		c-1.8,0-1.8-0.1,1-0.7c3.6-0.8,9.7-3.2,12.3-4.8c8.1-5.1,14.2-14.8,15.5-24.7l0.6-4.1h2c5.6,0,13.8,3.4,19.5,8.1
		c9.7,8,14.2,21.7,11.1,33.8c-3.6,14-14.3,23.5-28.8,25.7c-1.9,0.3-3.7,0.5-3.8,0.5C170.2,167.4,170.1,166.6,170.1,165.5z"/>
	<path id="XMLID_8_" class="st0" d="M374.2,133V98.6l14.1,0.2c16.5,0.3,19.3,0.8,27,4.8c5.9,3,9.7,6.7,12.9,12.4
		c5.3,9.5,5.7,22.9,0.9,33c-2.9,6-9.3,12.1-15.7,14.9c-1.2,0.5-4.1,1.4-6.3,2c-3.7,1-5.6,1.1-18.5,1.3l-14.3,0.2V133L374.2,133z"/>
	<path id="XMLID_9_" class="st0" d="M402.4,153.9c4.2-1.1,7.4-3,10.1-6.1c3.4-3.8,4.5-6.9,4.7-13.6c0.3-6.6-0.5-9.8-3.3-13.9
		c-4.1-6.1-10.5-8.8-20.5-8.8l-4.5,0V133v21.6h5.3C397.4,154.6,400.6,154.3,402.4,153.9L402.4,153.9z"/>
	<path id="XMLID_10_" class="st0" d="M102.1,95.7c0.9-8,5.3-15.6,12.3-21.5c2.9-2.4,9.2-5.6,13.3-6.6c3.3-0.8,10.6-1,14.4-0.3
		c9.6,1.8,19.3,9,23.6,17.6c2.2,4.4,4,9.8,4,12.2v1.7h-33.9h-33.9L102.1,95.7z"/>
</g>
</svg>
