<?xml version="1.0" encoding="utf-8"?>
<!-- Generator: Adobe Illustrator 21.1.0, SVG Export Plug-In . SVG Version: 6.00 Build 0)  -->
<svg version="1.1" xmlns="http://www.w3.org/2000/svg" xmlns:xlink="http://www.w3.org/1999/xlink" x="0px" y="0px"
	 viewBox="0 0 119.2 129.1" style="enable-background:new 0 0 119.2 129.1;" xml:space="preserve">
<style type="text/css">
	.st0{fill-rule:evenodd;clip-rule:evenodd;fill:#E2E2E2;}
	.st1{fill:#FFFFFF;}
	.st2{fill:#CCCCCC;}
	.st3{fill:#EFEFEF;}
	.st4{fill:#04C582;}
	.st5{fill:#E2E2E2;}
	.st6{fill:#F9F9F9;}
	.st7{fill:#D1D1D1;}
	.st8{fill:#606060;}
	.st9{fill:#1E120D;}
	.st10{fill:none;stroke:#E2E2E2;stroke-miterlimit:10;}
	.st11{fill:none;stroke:#000000;stroke-width:6;stroke-miterlimit:10;}
	.st12{fill:none;stroke:#000000;stroke-miterlimit:10;}
	.st13{fill:url(#SVGID_1_);}
	.st14{fill:url(#SVGID_2_);}
	.st15{fill:#303030;}
	.st16{fill:url(#SVGID_3_);}
	.st17{fill:url(#SVGID_4_);}
	.st18{fill:url(#SVGID_5_);}
	.st19{fill:url(#SVGID_6_);}
	.st20{fill:url(#SVGID_7_);}
	.st21{fill:url(#SVGID_8_);}
	.st22{fill:url(#SVGID_9_);}
	.st23{fill:url(#SVGID_10_);}
	.st24{opacity:0.7;}
	.st25{opacity:0.3;fill:#FFFFFF;}
	.st26{opacity:0.3;}
	.st27{fill:url(#SVGID_11_);}
	.st28{fill:url(#SVGID_12_);}
	.st29{fill:url(#SVGID_13_);}
	.st30{fill:url(#SVGID_14_);}
	.st31{fill:url(#SVGID_15_);}
	.st32{fill:url(#SVGID_16_);}
	.st33{fill:url(#SVGID_17_);}
	.st34{fill:url(#SVGID_18_);}
	.st35{fill:url(#SVGID_19_);}
	.st36{fill:url(#SVGID_20_);}
	.st37{fill:url(#SVGID_21_);}
	.st38{fill:url(#SVGID_22_);}
	.st39{fill:url(#SVGID_23_);}
	.st40{fill:url(#SVGID_24_);}
	.st41{fill:url(#SVGID_25_);}
	.st42{fill:url(#SVGID_26_);}
	.st43{fill:url(#SVGID_27_);}
	.st44{fill:url(#SVGID_28_);}
	.st45{fill:url(#SVGID_29_);}
	.st46{fill:url(#SVGID_30_);}
	.st47{fill:url(#SVGID_31_);}
	.st48{fill:url(#SVGID_32_);}
	.st49{fill:url(#SVGID_33_);}
	.st50{fill:url(#SVGID_34_);}
	.st51{fill:url(#SVGID_35_);}
	.st52{fill:url(#SVGID_36_);}
	.st53{fill:url(#SVGID_37_);}
	.st54{fill:url(#SVGID_38_);}
	.st55{fill:url(#SVGID_39_);}
	.st56{fill:url(#SVGID_40_);}
	.st57{fill:url(#SVGID_41_);}
	.st58{fill:url(#SVGID_42_);}
	.st59{fill:none;stroke:#EFEBE3;stroke-miterlimit:10;}
	.st60{fill:#EFEBE3;}
	.st61{fill:none;stroke:#000000;stroke-width:0.75;stroke-miterlimit:10;}
</style>
<g id="Background">
</g>
<g id="Objects">
	<path class="st59" d="M61.3,110.2c-26.1,0-47.4-19.6-47.4-43.7c0-24.1,21.3-43.7,47.4-43.7c26.1,0,47.4,19.6,47.4,43.7
		C108.7,90.7,87.5,110.2,61.3,110.2z"/>
	<g>
		<ellipse class="st60" cx="61.4" cy="67.4" rx="7.8" ry="7.2"/>
		<path class="st60" d="M79.7,54.6c-0.4-1-0.9-1.7-1.8-2.5c-0.8-0.8-1.6-1.2-2.7-1.6c-0.8-0.3-2.1-0.6-4.4-0.7
			c-2.5-0.1-3.2-0.1-9.5-0.1c-6.3,0-7,0-9.5,0.1c-2.3,0.1-3.5,0.4-4.4,0.7c-1.1,0.4-1.9,0.9-2.7,1.6c-0.8,0.8-1.3,1.5-1.8,2.5
			c-0.3,0.8-0.7,1.9-0.8,4c-0.1,2.3-0.1,3-0.1,8.8c0,5.8,0,6.5,0.1,8.8c0.1,2.1,0.5,3.3,0.8,4c0.4,1,0.9,1.7,1.8,2.5
			c0.8,0.8,1.6,1.2,2.7,1.6c0.8,0.3,2.1,0.6,4.4,0.7c2.5,0.1,3.2,0.1,9.5,0.1c6.3,0,7,0,9.5-0.1c2.3-0.1,3.5-0.4,4.4-0.7
			c1.1-0.4,1.9-0.9,2.7-1.6c0.8-0.8,1.3-1.5,1.8-2.5c0.3-0.8,0.7-1.9,0.8-4c0.1-2.3,0.1-3,0.1-8.8c0-5.8,0-6.5-0.1-8.8
			C80.4,56.5,80,55.4,79.7,54.6z M61.4,78.5c-6.7,0-12.1-5-12.1-11.1c0-6.1,5.4-11.1,12.1-11.1s12.1,5,12.1,11.1
			C73.4,73.5,68,78.5,61.4,78.5z M73.9,58.4c-1.6,0-2.8-1.2-2.8-2.6c0-1.4,1.3-2.6,2.8-2.6c1.6,0,2.8,1.2,2.8,2.6
			C76.7,57.2,75.5,58.4,73.9,58.4z"/>
		<path class="st60" d="M61.3,29.1c-22.5,0-40.7,16.8-40.7,37.5c0,20.7,18.2,37.5,40.7,37.5c22.5,0,40.7-16.8,40.7-37.5
			C102,45.9,83.8,29.1,61.3,29.1z M84.7,76.3c-0.1,2.3-0.5,3.9-1.1,5.3c-0.6,1.4-1.4,2.6-2.7,3.8c-1.3,1.2-2.6,1.9-4.2,2.5
			c-1.5,0.5-3.2,0.9-5.7,1C68.6,89,67.8,89,61.4,89c-6.4,0-7.2,0-9.7-0.1c-2.5-0.1-4.2-0.5-5.7-1c-1.5-0.6-2.9-1.3-4.2-2.5
			c-1.3-1.2-2.1-2.4-2.7-3.8c-0.6-1.4-1-3-1.1-5.3c-0.1-2.3-0.1-3-0.1-8.9c0-5.9,0-6.6,0.1-8.9c0.1-2.3,0.5-3.9,1.1-5.3
			c0.6-1.4,1.4-2.6,2.7-3.8c1.3-1.2,2.6-1.9,4.2-2.5c1.5-0.5,3.2-0.9,5.7-1c2.5-0.1,3.3-0.1,9.7-0.1c6.4,0,7.2,0,9.7,0.1
			c2.5,0.1,4.2,0.5,5.7,1c1.5,0.6,2.9,1.3,4.2,2.5c1.3,1.2,2.1,2.4,2.7,3.8c0.6,1.4,1,3,1.1,5.3c0.1,2.3,0.1,3,0.1,8.9
			C84.9,73.3,84.9,74,84.7,76.3z"/>
	</g>
</g>
<g id="Designed_by_Freepik">
</g>
</svg>
