<?xml version="1.0" encoding="utf-8"?>
<!-- Generator: Adobe Illustrator 21.1.0, SVG Export Plug-In . SVG Version: 6.00 Build 0)  -->
<svg version="1.1" id="Capa_1" xmlns="http://www.w3.org/2000/svg" xmlns:xlink="http://www.w3.org/1999/xlink" x="0px" y="0px"
	 viewBox="0 0 183.3 184.2" style="enable-background:new 0 0 183.3 184.2;" xml:space="preserve">
<style type="text/css">
	.st0{fill:none;}
</style>
<rect x="-440.9" y="-439.3" class="st0" width="1024" height="1068"/>
<path d="M121.9,142.1c-0.9,13.6-6.3,22.6-17.6,27.4c-7.3,3.1-14.1,1-19.8-4.2c-4.2-3.9-8.2-8-12.2-12.2c-4.4-4.7-9.5-7-16-7.1
	c-9-0.1-17.8-1.6-26-5.4c-7.6-3.5-12.1-11.5-10.3-20.5c2-9.9,7-17.6,16-22.2c4.3-2.2,9.1-3.7,13.7-5.2c10.3-3.5,20.6-7,30.5-11.6
	c3.5-1.6,7.5-2.9,11.3-3c7.1-0.2,13,3,16,9.6c1.9,4.2,3,8.8,3.7,13.4c1.7,11.1,4.2,22,8.3,32.5C120.8,136.7,121.4,140.1,121.9,142.1
	z"/>
<path d="M26.5,66.6c0.2-8.6,3-15.2,7.8-21.1c3.9-4.8,8.8-7.9,14.8-8.5c8.2-0.8,14.7,4.6,16.4,13.1c1.8,9.3-1.2,17.4-6.9,24.7
	c-2.6,3.3-5.7,5.9-9.6,7.5c-10,4.3-19.8-0.7-22-11.3C26.7,69.3,26.6,67.6,26.5,66.6z"/>
<path d="M168,106.5c-0.3,8-3.1,14.4-7.6,20.2c-2.9,3.7-6.4,6.3-10.7,7.8c-10.4,3.5-18.7-2-20.7-11.7c-2-9.7,1.2-18,7.2-25.5
	c3.8-4.8,8.8-8,14.8-8.5c8.1-0.7,14.4,4.2,16.4,13.1C167.8,103.5,167.9,105.3,168,106.5z"/>
<path d="M130.7,86.4c-10.4-0.1-14.8-5.9-16.3-13.5c-2-10,1.2-18.7,7.9-26c3.7-4,8.3-7,13.9-7.5c7.6-0.7,13.9,3.9,16.1,11.8
	c2,7.1,0.5,13.9-2.7,20.3c-2.4,5-5.8,9.3-10.9,11.9C135.7,84.9,132.4,85.7,130.7,86.4z"/>
<path d="M73.5,47.1c1-12.6,5.2-22.2,15.9-27.8c10.6-5.5,20.1-0.7,22.9,10.7c1.1,4.6,0.5,9.1-0.7,13.6c-2.6,9.7-8.6,16.5-18,19.9
	c-7.8,2.8-15.3-1.6-18.2-8.5C74.3,52.2,74,49.1,73.5,47.1z"/>
</svg>
