<?xml version="1.0" encoding="utf-8"?>
<!-- Generator: Adobe Illustrator 21.1.0, SVG Export Plug-In . SVG Version: 6.00 Build 0)  -->
<svg version="1.1" xmlns="http://www.w3.org/2000/svg" xmlns:xlink="http://www.w3.org/1999/xlink" x="0px" y="0px"
	 viewBox="0 0 119.2 100.7" style="enable-background:new 0 0 119.2 100.7;" xml:space="preserve">
<style type="text/css">
	.st0{fill-rule:evenodd;clip-rule:evenodd;fill:#E2E2E2;}
	.st1{fill:#FFFFFF;}
	.st2{fill:#CCCCCC;}
	.st3{fill:#EFEFEF;}
	.st4{fill:#04C582;}
	.st5{fill:#E2E2E2;}
	.st6{fill:#F9F9F9;}
	.st7{fill:#D1D1D1;}
	.st8{fill:#606060;}
	.st9{fill:#1E120D;}
	.st10{fill:none;stroke:#E2E2E2;stroke-miterlimit:10;}
	.st11{fill:none;stroke:#000000;stroke-width:6;stroke-miterlimit:10;}
	.st12{fill:none;stroke:#000000;stroke-miterlimit:10;}
	.st13{fill:url(#SVGID_1_);}
	.st14{fill:url(#SVGID_2_);}
	.st15{fill:#303030;}
	.st16{fill:url(#SVGID_3_);}
	.st17{fill:url(#SVGID_4_);}
	.st18{fill:url(#SVGID_5_);}
	.st19{fill:url(#SVGID_6_);}
	.st20{fill:url(#SVGID_7_);}
	.st21{fill:url(#SVGID_8_);}
	.st22{fill:url(#SVGID_9_);}
	.st23{fill:url(#SVGID_10_);}
	.st24{opacity:0.7;}
	.st25{opacity:0.3;fill:#FFFFFF;}
	.st26{opacity:0.3;}
	.st27{fill:url(#SVGID_11_);}
	.st28{fill:url(#SVGID_12_);}
	.st29{fill:url(#SVGID_13_);}
	.st30{fill:url(#SVGID_14_);}
	.st31{fill:url(#SVGID_15_);}
	.st32{fill:url(#SVGID_16_);}
	.st33{fill:url(#SVGID_17_);}
	.st34{fill:url(#SVGID_18_);}
	.st35{fill:url(#SVGID_19_);}
	.st36{fill:url(#SVGID_20_);}
	.st37{fill:url(#SVGID_21_);}
	.st38{fill:url(#SVGID_22_);}
	.st39{fill:url(#SVGID_23_);}
	.st40{fill:url(#SVGID_24_);}
	.st41{fill:url(#SVGID_25_);}
	.st42{fill:url(#SVGID_26_);}
	.st43{fill:url(#SVGID_27_);}
	.st44{fill:url(#SVGID_28_);}
	.st45{fill:url(#SVGID_29_);}
	.st46{fill:url(#SVGID_30_);}
	.st47{fill:url(#SVGID_31_);}
	.st48{fill:url(#SVGID_32_);}
	.st49{fill:url(#SVGID_33_);}
	.st50{fill:url(#SVGID_34_);}
	.st51{fill:url(#SVGID_35_);}
	.st52{fill:url(#SVGID_36_);}
	.st53{fill:url(#SVGID_37_);}
	.st54{fill:url(#SVGID_38_);}
	.st55{fill:url(#SVGID_39_);}
	.st56{fill:url(#SVGID_40_);}
	.st57{fill:url(#SVGID_41_);}
	.st58{fill:url(#SVGID_42_);}
	.st59{fill:none;stroke:#EFEBE3;stroke-miterlimit:10;}
	.st60{fill:#EFEBE3;}
	.st61{fill:none;stroke:#000000;stroke-width:0.75;stroke-miterlimit:10;}
</style>
<g id="Background">
</g>
<g id="Objects">
	<path class="st59" d="M61.8,95.9c-26.1,0-47.4-19.6-47.4-43.7c0-24.1,21.3-43.7,47.4-43.7s47.4,19.6,47.4,43.7
		C109.2,76.4,87.9,95.9,61.8,95.9z"/>
	<path class="st60" d="M61.8,14.8c-22.5,0-40.7,16.8-40.7,37.5c0,20.7,18.2,37.5,40.7,37.5c22.5,0,40.7-16.8,40.7-37.5
		C102.5,31.6,84.3,14.8,61.8,14.8z M73.7,37.5c0,0-4,0-5.7,0c-2,0-2.4,0.8-2.4,2.7c0,1.6,0,4.6,0,4.6h8.1L73,52.9h-7.3v24.1H55.2V53
		h-5.4v-8.2h5.4c0,0,0-1.2,0-6.4c0-6,3.5-9.2,11.3-9.2c1.3,0,7.2,0,7.2,0V37.5z"/>
</g>
<g id="Designed_by_Freepik">
</g>
</svg>
