<?xml version="1.0" encoding="utf-8"?>
<!-- Generator: Adobe Illustrator 21.1.0, SVG Export Plug-In . SVG Version: 6.00 Build 0)  -->
<svg version="1.1" id="Capa_1" xmlns="http://www.w3.org/2000/svg" xmlns:xlink="http://www.w3.org/1999/xlink" x="0px" y="0px"
	 viewBox="0 0 499.1 500.4" style="enable-background:new 0 0 499.1 500.4;" xml:space="preserve">
<style type="text/css">
	.st0{fill:none;}
	.st1{fill:#FFFFFF;}
</style>
<rect x="-283.6" y="-306.8" class="st0" width="1024" height="1126"/>
<rect x="-255.7" y="-306.8" class="st0" width="1024" height="1126"/>
<g>
	<path class="st1" d="M394.5,213.5c33.4,13.3,51.8,34.4,54.5,66.8c1.7,20.9-9,36.3-26.7,46.4c-13.2,7.5-27,14.2-40.8,20.6
		c-15.3,7.2-25.5,18.1-31,34.5c-7.6,22.5-18.7,43.4-34.9,61c-15,16.3-38.8,21-60.2,9c-23.4-13.1-38.7-32-42.9-58.5
		c-2-12.7-1.8-25.8-1.9-38.8c-0.3-28.9-0.5-57.7-4.1-86.5c-1.2-10.1-1.1-21.2,1.8-30.9c5.3-18.1,18.3-30.2,37.4-32.3
		c12-1.4,24.7-0.3,36.7,1.6c29.4,4.8,58.9,7.5,88.7,5.8C380.1,211.9,389.1,213.2,394.5,213.5z"/>
	<path class="st1" d="M125.8,391.9c-21.4-7.5-35.8-20-46.8-37.1c-8.8-13.7-12.7-28.6-9.2-44.4c4.8-21.4,23.6-33.3,46.6-30.4
		c24.9,3.2,42.7,17.3,56.5,37.7c6.2,9.3,10.1,19.2,11.1,30.3c2.6,28.6-18,49.2-46.5,46.1C132.8,393.6,128.3,392.4,125.8,391.9z"/>
	<path class="st1" d="M342.8,68c19.8,7.3,33.6,19.6,44.5,35.8c6.9,10.3,10.7,21.2,10.9,33.5c0.3,29-20.4,45.4-46.6,42.5
		c-26.1-2.9-44.5-17.9-58.4-39.2c-8.9-13.6-12.8-28.6-9.2-44.4c4.8-21.1,22.6-32.8,46.4-30.5C335,66.2,339.5,67.4,342.8,68z"/>
	<path class="st1" d="M261.3,145.4c-8.9,26.2-27.2,32.4-47.4,30.1c-26.7-3.1-46-18.3-59-41.2c-7.1-12.6-10.7-26.6-7.4-41.3
		c4.5-19.8,21.1-31.8,42.8-30.8c19.5,0.8,35.3,10.2,49,23.5c10.7,10.3,18.7,22.4,20.9,37.3C261.6,131.7,261.2,140.8,261.3,145.4z"/>
	<path class="st1" d="M115.3,257.2c-31-12.8-51.7-31.4-56.9-62.9c-5.2-31.2,14.8-51.3,45.8-48.9c12.5,1,23.4,6.1,33.7,12.9
		c22.2,14.6,34.5,35.3,35.3,61.6c0.6,21.8-16.7,37.2-36.5,38.8C128.8,259.4,120.7,257.7,115.3,257.2z"/>
</g>
</svg>
