<?xml version="1.0" encoding="utf-8"?>
<!-- Generator: Adobe Illustrator 21.1.0, SVG Export Plug-In . SVG Version: 6.00 Build 0)  -->
<svg version="1.1" xmlns="http://www.w3.org/2000/svg" xmlns:xlink="http://www.w3.org/1999/xlink" x="0px" y="0px"
	 viewBox="0 0 132.8 129.1" style="enable-background:new 0 0 132.8 129.1;" xml:space="preserve">
<style type="text/css">
	.st0{fill-rule:evenodd;clip-rule:evenodd;fill:#E2E2E2;}
	.st1{fill:#FFFFFF;}
	.st2{fill:#CCCCCC;}
	.st3{fill:#EFEFEF;}
	.st4{fill:#04C582;}
	.st5{fill:#E2E2E2;}
	.st6{fill:#F9F9F9;}
	.st7{fill:#D1D1D1;}
	.st8{fill:#606060;}
	.st9{fill:#1E120D;}
	.st10{fill:none;stroke:#E2E2E2;stroke-miterlimit:10;}
	.st11{fill:none;stroke:#000000;stroke-width:6;stroke-miterlimit:10;}
	.st12{fill:none;stroke:#000000;stroke-miterlimit:10;}
	.st13{fill:url(#SVGID_1_);}
	.st14{fill:url(#SVGID_2_);}
	.st15{fill:#303030;}
	.st16{fill:url(#SVGID_3_);}
	.st17{fill:url(#SVGID_4_);}
	.st18{fill:url(#SVGID_5_);}
	.st19{fill:url(#SVGID_6_);}
	.st20{fill:url(#SVGID_7_);}
	.st21{fill:url(#SVGID_8_);}
	.st22{fill:url(#SVGID_9_);}
	.st23{fill:url(#SVGID_10_);}
	.st24{opacity:0.7;}
	.st25{opacity:0.3;fill:#FFFFFF;}
	.st26{opacity:0.3;}
	.st27{fill:url(#SVGID_11_);}
	.st28{fill:url(#SVGID_12_);}
	.st29{fill:url(#SVGID_13_);}
	.st30{fill:url(#SVGID_14_);}
	.st31{fill:url(#SVGID_15_);}
	.st32{fill:url(#SVGID_16_);}
	.st33{fill:url(#SVGID_17_);}
	.st34{fill:url(#SVGID_18_);}
	.st35{fill:url(#SVGID_19_);}
	.st36{fill:url(#SVGID_20_);}
	.st37{fill:url(#SVGID_21_);}
	.st38{fill:url(#SVGID_22_);}
	.st39{fill:url(#SVGID_23_);}
	.st40{fill:url(#SVGID_24_);}
	.st41{fill:url(#SVGID_25_);}
	.st42{fill:url(#SVGID_26_);}
	.st43{fill:url(#SVGID_27_);}
	.st44{fill:url(#SVGID_28_);}
	.st45{fill:url(#SVGID_29_);}
	.st46{fill:url(#SVGID_30_);}
	.st47{fill:url(#SVGID_31_);}
	.st48{fill:url(#SVGID_32_);}
	.st49{fill:url(#SVGID_33_);}
	.st50{fill:url(#SVGID_34_);}
	.st51{fill:url(#SVGID_35_);}
	.st52{fill:url(#SVGID_36_);}
	.st53{fill:url(#SVGID_37_);}
	.st54{fill:url(#SVGID_38_);}
	.st55{fill:url(#SVGID_39_);}
	.st56{fill:url(#SVGID_40_);}
	.st57{fill:url(#SVGID_41_);}
	.st58{fill:url(#SVGID_42_);}
	.st59{fill:none;stroke:#EFEBE3;stroke-miterlimit:10;}
	.st60{fill:#EFEBE3;}
	.st61{fill:none;stroke:#000000;stroke-width:0.75;stroke-miterlimit:10;}
</style>
<g id="Background">
</g>
<g id="Objects">
	<path class="st59" d="M57.8,109.5c-26.1,0-47.4-19.6-47.4-43.7c0-24.1,21.3-43.7,47.4-43.7s47.4,19.6,47.4,43.7
		C105.2,89.9,83.9,109.5,57.8,109.5z"/>
	<g>
		<path class="st60" d="M55.2,81.8c-0.3,0.4-1,1-1.5,1c-0.6,0-0.7-0.3-0.7-0.9v-9.8h-2.6v10.7c0,2.6,1.9,2.6,3.3,1.9
			c0.5-0.3,1-0.7,1.5-1.2v1.4h2.6V72.1h-2.6V81.8z"/>
		<path class="st60" d="M65.2,72c-0.9,0-1.7,0.5-2.3,1.2v-5.6h-2.6v17.3h2.6v-1c0.7,0.8,1.5,1.1,2.5,1.1c1.7,0,2.4-1.2,2.4-2.8v-7.1
			C67.7,73.4,67.1,72,65.2,72z M65.1,81.9c0,0.4-0.1,0.7-0.2,0.9c-0.3,0.3-0.9,0.3-1.3,0.1c-0.2-0.1-0.4-0.2-0.6-0.5v-8
			c0.2-0.2,0.4-0.3,0.5-0.4c0.5-0.2,1-0.2,1.3,0.2c0.2,0.2,0.3,0.6,0.3,1V81.9z"/>
		<path class="st60" d="M57.8,28.3c-22.5,0-40.7,16.8-40.7,37.5c0,20.7,18.2,37.5,40.7,37.5c22.5,0,40.7-16.8,40.7-37.5
			C98.4,45.1,80.2,28.3,57.8,28.3z M63.8,46.8h2.7v10.3c0,0.5,0.1,0.9,0.7,0.9c0.5,0,1.3-0.6,1.6-1V46.8h2.7v13.4h-2.7v-1.5
			c-1.2,1.3-2.3,1.7-3.1,1.7c-1.5,0-1.9-1.1-1.9-2.4V46.8z M57.6,46.7c2.2,0,3.9,1.5,3.9,3.6v6.6c0,2.3-1.7,3.6-3.9,3.6
			c-2.6,0-4-1.2-4-3.6v-6.6C53.6,48.2,55.2,46.7,57.6,46.7z M46.6,42l2.1,7.3l2-7.3h3.1l-3.6,10.8v7.4h-3.1v-7.4L43.5,42H46.6z
			 M81.4,83.5c0,3.2-2.8,5.7-6.2,5.7h-32c-3.4,0-6.2-2.6-6.2-5.7V69c0-3.2,2.8-5.7,6.2-5.7h32c3.4,0,6.2,2.6,6.2,5.7V83.5z"/>
		<path class="st60" d="M57.6,58.1c0.7,0,1.1-0.5,1.1-1.3v-6.2c0-0.8-0.4-1.3-1.2-1.3c-0.8,0-1.1,0.5-1.1,1.3v6.2
			C56.4,57.5,56.8,58.1,57.6,58.1z"/>
		<path class="st60" d="M73.6,71.8c-2.3,0-3.9,1.5-3.9,3.8v5.7c0,2.3,1.3,4,3.7,4c2.7,0,3.9-1.5,3.9-4v-1h-2.7v0.9
			c0,1.1-0.1,1.8-1.2,1.8c-1,0-1.1-0.8-1.1-1.8v-2.4h4.9v-3.3C77.3,73.3,76.1,71.8,73.6,71.8z M74.6,76.8h-2.3v-1.3
			c0-0.9,0.2-1.5,1.2-1.5c0.9,0,1.1,0.6,1.1,1.5V76.8z"/>
		<polygon class="st60" points="50.5,67.6 41.5,67.6 41.5,70.1 44.5,70.1 44.5,84.9 47.5,84.9 47.5,70.1 50.5,70.1 		"/>
	</g>
</g>
<g id="Designed_by_Freepik">
</g>
</svg>
