<?xml version="1.0" encoding="utf-8"?>
<!-- Generator: Adobe Illustrator 21.1.0, SVG Export Plug-In . SVG Version: 6.00 Build 0)  -->
<svg version="1.1" id="Capa_1" xmlns="http://www.w3.org/2000/svg" xmlns:xlink="http://www.w3.org/1999/xlink" x="0px" y="0px"
	 viewBox="0 0 499.1 500.4" style="enable-background:new 0 0 499.1 500.4;" xml:space="preserve">
<style type="text/css">
	.st0{fill:none;}
</style>
<rect x="-283.6" y="-306.8" class="st0" width="1024" height="1126"/>
<rect x="-255.7" y="-306.8" class="st0" width="1024" height="1126"/>
<path d="M256.6,475.6c-22.8-43.7-45.6-85.1-66.2-127.6c-21.9-45.3-43.1-91.1-61.9-137.7C92,119.5,161.7,38,238.4,27.1
	c69.7-9.9,145.8,42.3,154.8,119.3c2.4,20.7-0.2,40.9-7.3,60.5c-23.6,65.6-55.4,127.4-87.2,189.2C285.4,422,271.4,447.7,256.6,475.6z
	 M257.6,195.6c-4.1-3.8-7.5-7.3-11.3-10.3c-13.5-10.6-28.9-12.2-41.7-4.5c-12.3,7.4-18.5,21.6-15.2,38.1c1.4,6.9,3.9,14.7,8.5,19.8
	c17.7,19.4,36.5,37.8,56.5,58.4c21.2-19.1,40.8-36.1,59.5-54.1c5-4.8,8-12.2,10.2-19c5-15.1-0.2-30.9-11.7-39.3
	c-11.9-8.8-27.3-8.9-41,0.1C266.7,187.9,262.3,191.9,257.6,195.6z M151.5,145.1c-0.1,17.4,13.5,33.2,28.2,32.9
	c12.1-0.2,21-10.8,21-25c0-17.3-13.6-33.2-28.2-32.9C160.4,120.3,151.5,130.9,151.5,145.1z M253.1,125.7
	c0.4-12.4-6.2-24.7-16.1-29.4c-7.5-3.6-14.8-3.2-21.4,2.1c-10,8.1-12.1,18.9-9.9,30.9c2.6,14.2,14.5,24.6,26.2,23.4
	C243.5,151.6,252.7,139.9,253.1,125.7z M309,122.3c-0.2-15.5-10.1-27.1-23-26.8c-13.8,0.3-25.8,15.1-25.5,31.6
	c0.3,15.2,10.5,27,23.3,26.8C297.7,153.6,309.2,139.2,309,122.3z M311.7,156.9c0,14.2,9,24.7,21.3,24.6c14.7-0.1,28.3-16,28.3-33.1
	c0-14.2-9.1-24.7-21.3-24.6C325.1,124,311.8,139.6,311.7,156.9z"/>
</svg>
