<?xml version="1.0" encoding="utf-8"?>
<!-- Generator: Adobe Illustrator 21.1.0, SVG Export Plug-In . SVG Version: 6.00 Build 0)  -->
<svg version="1.1" id="Capa_1" xmlns="http://www.w3.org/2000/svg" xmlns:xlink="http://www.w3.org/1999/xlink" x="0px" y="0px"
	 viewBox="0 0 162 208" style="enable-background:new 0 0 162 208;" xml:space="preserve">
<style type="text/css">
	.st0{fill:none;}
	.st1{fill:none;stroke:#000000;stroke-width:6;stroke-miterlimit:10;}
</style>
<rect x="-456.8" y="-459.7" class="st0" width="1024" height="1126"/>
<rect x="-428.9" y="-459.7" class="st0" width="1024" height="1126"/>
<path class="st1" d="M86,8.2c1.8,0.3,3.5,0.6,5.3,0.9c8.4,1,16.4,3.8,23.8,7.7c5.3,2.8,10.2,6.3,14.6,10.4
	c5.6,5.2,10.3,11,14.1,17.7c4.4,7.8,7.3,16.1,8.6,25c1.9,12.6,0.5,24.8-4.1,36.7c-2.5,6.6-6.2,12.6-10.3,18.3
	c-3.8,5.2-7.5,10.5-11.2,15.8c-5.4,7.6-10.8,15.3-16.2,22.9c-5.4,7.6-10.8,15.2-16.1,22.8c-2.8,4-5.6,8.1-8.5,12
	c-2.5,3.4-7.3,3.3-9.8-0.1c-6.4-9-12.8-18.1-19.2-27.1c-7-9.9-14.1-19.8-21.1-29.7c-5.6-7.9-11.3-15.6-16.5-23.7
	c-5.6-8.7-8.7-18.3-10-28.6C8.2,79,9,69,12,59.3c3.2-10.5,8.6-19.8,16.1-27.8c5.4-5.8,11.5-10.6,18.4-14.4c7.4-4.1,15.3-6.8,23.8-8
	c2-0.3,3.9-0.6,5.9-0.9C79.4,8.2,82.7,8.2,86,8.2z M81.1,56.4c-13.3,0-24,10.7-24.1,24c0,13.3,10.6,24.1,23.9,24.1
	c13.3,0.1,24.1-10.6,24.2-23.9C105.2,67.2,94.5,56.4,81.1,56.4z"/>
</svg>
