<?xml version="1.0" encoding="utf-8"?>
<!-- Generator: Adobe Illustrator 21.1.0, SVG Export Plug-In . SVG Version: 6.00 Build 0)  -->
<svg version="1.1" id="Capa_1" xmlns="http://www.w3.org/2000/svg" xmlns:xlink="http://www.w3.org/1999/xlink" x="0px" y="0px"
	 viewBox="0 0 20.2 19.6" style="enable-background:new 0 0 20.2 19.6;" xml:space="preserve">
<style type="text/css">
	.st0{fill:none;}
	.st1{fill:#FFFFFF;}
</style>
<rect x="-529.3" y="-553.2" class="st0" width="1024" height="1126"/>
<rect x="-501.4" y="-553.2" class="st0" width="1024" height="1126"/>
<g>
	<path d="M14,6c0,0.8-0.2,1.5-0.5,2.2c-0.5,0.9-1.1,1.8-1.9,2.4c-0.3,0.2-0.6,0.5-1,0.6c-0.1,0-0.2,0.1-0.3,0.1
		c-0.4,0-0.7-0.1-1-0.3C8.5,10.6,7.9,10,7.4,9.3C7,8.8,6.7,8.3,6.5,7.7c-0.2-0.7-0.4-1.3-0.3-2C6.3,4.6,6.8,3.7,7.6,3
		c0.5-0.5,1.1-0.7,1.8-0.9c0.7-0.1,1.3-0.1,1.9,0.2C12,2.6,12.5,2.9,13,3.4c0.5,0.6,0.9,1.3,1,2.1c0,0.1,0,0.2,0,0.3
		C14,5.9,14,6,14,6z M7.1,5.9C7.1,5.9,7.1,5.9,7.1,5.9c0,0.4,0.2,0.6,0.5,0.5C7.7,6.3,7.8,6.1,7.8,6c0-0.4,0.1-0.8,0.3-1.1
		C8.4,4.3,8.7,4,9.3,3.9c0.2,0,0.3-0.2,0.3-0.4c0-0.2-0.2-0.3-0.4-0.3C8.6,3.3,8.1,3.6,7.7,4.1C7.3,4.6,7.1,5.2,7.1,5.9z"/>
	<path d="M12.2,10.7c0.2-0.2,0.4-0.4,0.6-0.6c0.5-0.6,1-1.3,1.3-2.1c0.3-0.7,0.4-1.5,0.4-2.2c0,0,0,0,0-0.1c0.2,0,0.3,0,0.5,0.1
		c1,0.3,1.7,0.9,2,1.9c0.2,0.7,0.2,1.3-0.1,2c-0.4,1-1,1.9-1.9,2.5c-0.1,0.1-0.2,0.1-0.4,0.2c-0.2,0.1-0.4,0.1-0.6,0
		c-0.5-0.2-0.9-0.5-1.2-0.9C12.5,11.1,12.4,10.9,12.2,10.7z M16.4,8.4C16.4,8.4,16.4,8.4,16.4,8.4c0,0,0-0.1,0-0.1
		c0-0.3-0.1-0.6-0.3-0.9c-0.3-0.5-0.7-0.8-1.2-1c-0.2,0-0.3,0.1-0.3,0.2c0,0.1,0.1,0.3,0.2,0.3c0.4,0.1,0.6,0.3,0.8,0.6
		c0.2,0.3,0.2,0.6,0.3,0.9c0,0.1,0.1,0.2,0.2,0.2c0.1,0,0.2,0,0.3-0.2C16.4,8.5,16.4,8.5,16.4,8.4z"/>
	<path d="M5.8,5.7c0,0.2,0,0.5,0,0.7c0,0.4,0.1,0.8,0.3,1.2c0.2,0.7,0.6,1.3,1,1.9c0.3,0.4,0.6,0.8,1,1.1c0,0,0,0,0,0
		c-0.2,0.3-0.5,0.6-0.8,0.9c-0.3,0.3-0.6,0.5-1,0.7c-0.2,0.1-0.4,0.1-0.6,0c-0.3-0.1-0.6-0.3-0.8-0.5c-0.7-0.6-1.2-1.3-1.5-2.1
		C3,8.8,3,8,3.4,7.2c0.4-0.8,1.1-1.3,2.1-1.5C5.5,5.7,5.6,5.7,5.8,5.7C5.7,5.7,5.7,5.7,5.8,5.7z M3.7,8.4C3.7,8.4,3.7,8.4,3.7,8.4
		c0,0.2,0.1,0.3,0.3,0.3c0.2,0,0.3-0.1,0.3-0.3c0-0.1,0-0.2,0-0.3C4.4,7.6,4.7,7.1,5.4,7c0.1,0,0.2-0.2,0.2-0.3
		c0-0.1-0.2-0.2-0.3-0.2C4.9,6.5,4.6,6.6,4.4,6.9C4,7.3,3.8,7.8,3.7,8.4z"/>
	<path d="M10.1,11.5C10.1,11.5,10.1,11.5,10.1,11.5c0.2,0,0.4,0,0.5,0.2c0.1,0.2,0.2,0.3,0.3,0.5c0,0,0,0.1,0,0.1
		c0,0.1,0,0.2-0.1,0.2c-0.3,0-0.5,0.1-0.8,0.1c-0.1,0-0.3,0-0.4-0.1c-0.1-0.1-0.1-0.2-0.1-0.4c0.1-0.2,0.2-0.4,0.3-0.6
		c0,0,0.1,0,0.1,0C9.9,11.5,10,11.5,10.1,11.5C10.1,11.5,10.1,11.5,10.1,11.5z"/>
	<path d="M10,12.7c0.2,0,0.2,0,0.3,0.2c0.1,0.2,0.2,0.5,0.1,0.7c0,0.1-0.1,0.3-0.2,0.4c-0.1,0.1-0.1,0.2-0.2,0.3
		c-0.1,0.2-0.1,0.3,0,0.5c0.1,0.1,0.2,0.3,0.2,0.4c0.1,0.2,0.2,0.3,0.1,0.5c0,0.1-0.1,0.2-0.1,0.3c0,0-0.1,0.1-0.1,0.1
		C9.9,16.4,9.9,16.7,10,17c0.1,0.2,0.1,0.3,0.2,0.5c0,0-0.1,0.1-0.1,0.1c-0.2-0.3-0.4-0.7-0.3-1.1c0-0.1,0.1-0.3,0.2-0.4
		c0.2-0.3,0.2-0.5,0.1-0.8C10,15.1,9.9,15,9.8,14.9c-0.1-0.3-0.1-0.5,0.1-0.8c0.1-0.1,0.2-0.2,0.2-0.3c0.1-0.2,0.1-0.4,0.1-0.7
		C10.2,13,10.1,12.9,10,12.7z"/>
	<path d="M14.3,12.4c0.2-0.1,0.3,0.1,0.3,0.2c0,0.1,0.1,0.2,0.1,0.2c0,0.2-0.1,0.3-0.2,0.3c-0.2,0-0.5-0.1-0.7-0.1c0,0,0-0.1,0-0.1
		c0-0.1,0.1-0.3,0.1-0.4c0,0,0,0,0,0C14,12.4,14,12.4,14.3,12.4z"/>
	<path d="M5.9,12.4C5.9,12.4,6,12.4,5.9,12.4c0.2,0,0.3,0,0.4,0.2c0.1,0.1,0.1,0.3,0.2,0.4c0,0.1,0,0.1-0.1,0.2
		c-0.2,0-0.4,0.1-0.6,0.1c-0.3,0-0.4-0.2-0.3-0.4c0-0.1,0.1-0.2,0.2-0.3C5.7,12.4,5.8,12.4,5.9,12.4z"/>
	<path d="M14.3,16.7c0,0-0.1,0-0.1-0.1c0.1-0.1,0.1-0.2,0.2-0.4c0.1-0.2,0.1-0.4-0.1-0.6c-0.2-0.2-0.2-0.5-0.1-0.7
		c0-0.1,0.1-0.1,0.1-0.2c0.1-0.2,0.1-0.3,0-0.5c0,0-0.1-0.1-0.1-0.1c-0.3-0.3-0.2-0.6,0-0.9c0,0,0.1,0,0.1,0c0,0,0,0,0,0
		c0,0.1-0.1,0.1-0.1,0.2c-0.1,0.2-0.1,0.5,0.1,0.7c0,0,0.1,0.1,0.1,0.2c0.1,0.1,0.1,0.3,0,0.5c0,0.1-0.1,0.2-0.2,0.3
		c-0.1,0.2-0.1,0.4,0,0.6c0.2,0.3,0.2,0.5,0,0.8C14.4,16.6,14.3,16.7,14.3,16.7z"/>
	<path d="M5.9,13.3c0.1,0,0.2,0,0.2,0.1c0,0.1,0.1,0.1,0.1,0.2c0.1,0.2,0,0.4-0.1,0.6c0,0-0.1,0.1-0.1,0.1c-0.1,0.2-0.2,0.3,0,0.5
		C6,15,6,15.1,6.1,15.2c0.1,0.2,0,0.3-0.1,0.5c0,0-0.1,0.1-0.1,0.1c-0.1,0.1-0.1,0.3-0.1,0.4C5.9,16.4,6,16.5,6,16.7
		c0,0-0.1,0-0.1,0.1c-0.1-0.2-0.2-0.4-0.2-0.6c0-0.1,0-0.3,0.1-0.4c0,0,0,0,0-0.1c0.2-0.2,0.2-0.4,0-0.6c0-0.1-0.1-0.1-0.1-0.2
		c-0.1-0.2-0.1-0.4,0.1-0.6c0,0,0.1-0.1,0.1-0.1C6.1,14,6.1,13.8,6,13.5C6,13.5,5.9,13.4,5.9,13.3z"/>
</g>
</svg>
