<?xml version="1.0" encoding="utf-8"?>
<!-- Generator: Adobe Illustrator 21.1.0, SVG Export Plug-In . SVG Version: 6.00 Build 0)  -->
<svg version="1.1" id="Capa_1" xmlns="http://www.w3.org/2000/svg" xmlns:xlink="http://www.w3.org/1999/xlink" x="0px" y="0px"
	 viewBox="0 0 20.2 19.6" style="enable-background:new 0 0 20.2 19.6;" xml:space="preserve">
<style type="text/css">
	.st0{fill:none;}
	.st1{clip-path:url(#SVGID_2_);}
	.st2{clip-path:url(#SVGID_4_);}
	.st3{clip-path:url(#SVGID_6_);enable-background:new    ;}
	.st4{clip-path:url(#SVGID_8_);}
	.st5{clip-path:url(#SVGID_10_);}
	.st6{clip-path:url(#SVGID_12_);}
	.st7{clip-path:url(#SVGID_14_);}
	.st8{clip-path:url(#SVGID_16_);enable-background:new    ;}
	.st9{clip-path:url(#SVGID_18_);}
	.st10{clip-path:url(#SVGID_20_);}
	.st11{clip-path:url(#SVGID_22_);}
	.st12{clip-path:url(#SVGID_24_);}
	.st13{clip-path:url(#SVGID_26_);enable-background:new    ;}
	.st14{clip-path:url(#SVGID_28_);}
	.st15{clip-path:url(#SVGID_30_);}
	.st16{clip-path:url(#SVGID_32_);}
	.st17{clip-path:url(#SVGID_34_);}
	.st18{clip-path:url(#SVGID_36_);enable-background:new    ;}
	.st19{clip-path:url(#SVGID_38_);}
	.st20{clip-path:url(#SVGID_40_);}
	.st21{clip-path:url(#SVGID_42_);}
	.st22{clip-path:url(#SVGID_44_);}
	.st23{clip-path:url(#SVGID_46_);}
	.st24{clip-path:url(#SVGID_48_);}
	.st25{clip-path:url(#SVGID_50_);enable-background:new    ;}
	.st26{clip-path:url(#SVGID_52_);}
	.st27{clip-path:url(#SVGID_54_);}
	.st28{clip-path:url(#SVGID_56_);}
	.st29{clip-path:url(#SVGID_58_);}
	.st30{clip-path:url(#SVGID_60_);enable-background:new    ;}
	.st31{clip-path:url(#SVGID_62_);}
	.st32{clip-path:url(#SVGID_64_);}
	.st33{clip-path:url(#SVGID_66_);}
	.st34{clip-path:url(#SVGID_68_);}
	.st35{clip-path:url(#SVGID_70_);}
	.st36{clip-path:url(#SVGID_72_);}
	.st37{clip-path:url(#SVGID_74_);enable-background:new    ;}
	.st38{clip-path:url(#SVGID_76_);}
	.st39{clip-path:url(#SVGID_78_);}
	.st40{clip-path:url(#SVGID_80_);}
	.st41{clip-path:url(#SVGID_82_);}
	.st42{clip-path:url(#SVGID_84_);}
	.st43{clip-path:url(#SVGID_86_);enable-background:new    ;}
	.st44{clip-path:url(#SVGID_88_);}
	.st45{clip-path:url(#SVGID_90_);}
	.st46{clip-path:url(#SVGID_92_);}
	.st47{clip-path:url(#SVGID_94_);}
	.st48{clip-path:url(#SVGID_96_);enable-background:new    ;}
	.st49{clip-path:url(#SVGID_98_);}
	.st50{clip-path:url(#SVGID_100_);}
	.st51{clip-path:url(#SVGID_102_);}
	.st52{clip-path:url(#SVGID_104_);}
	.st53{clip-path:url(#SVGID_106_);enable-background:new    ;}
	.st54{clip-path:url(#SVGID_108_);}
	.st55{clip-path:url(#SVGID_110_);}
	.st56{clip-path:url(#SVGID_112_);}
	.st57{clip-path:url(#SVGID_114_);}
	.st58{clip-path:url(#SVGID_116_);enable-background:new    ;}
	.st59{clip-path:url(#SVGID_118_);}
	.st60{clip-path:url(#SVGID_120_);}
	.st61{clip-path:url(#SVGID_122_);}
	.st62{clip-path:url(#SVGID_124_);}
	.st63{clip-path:url(#SVGID_126_);enable-background:new    ;}
	.st64{clip-path:url(#SVGID_128_);}
	.st65{clip-path:url(#SVGID_130_);}
	.st66{clip-path:url(#SVGID_132_);}
	.st67{clip-path:url(#SVGID_134_);}
	.st68{clip-path:url(#SVGID_136_);enable-background:new    ;}
	.st69{clip-path:url(#SVGID_138_);}
	.st70{clip-path:url(#SVGID_140_);}
	.st71{clip-path:url(#SVGID_142_);}
</style>
<rect x="-501.4" y="-553.2" class="st0" width="1024" height="1126"/>
<rect x="-473.4" y="-553.2" class="st0" width="1024" height="1126"/>
<rect x="-498" y="-972" class="st0" width="1024" height="1972"/>
<g>
	<defs>
		<rect id="SVGID_81_" x="2" y="2.2" width="16.4" height="15.2"/>
	</defs>
	<clipPath id="SVGID_2_">
		<use xlink:href="#SVGID_81_"  style="overflow:visible;"/>
	</clipPath>
	<g class="st1">
		<defs>
			<rect id="SVGID_83_" x="2" y="2.2" width="4.7" height="4.4"/>
		</defs>
		<clipPath id="SVGID_4_">
			<use xlink:href="#SVGID_83_"  style="overflow:visible;"/>
		</clipPath>
		<g class="st2">
			<defs>
				<rect id="SVGID_85_" x="2" y="2.2" width="17" height="15.2"/>
			</defs>
			<clipPath id="SVGID_6_">
				<use xlink:href="#SVGID_85_"  style="overflow:visible;"/>
			</clipPath>
			<g class="st3">
				<g>
					<defs>
						<rect id="SVGID_87_" x="2" y="2.2" width="4.9" height="4.9"/>
					</defs>
					<clipPath id="SVGID_8_">
						<use xlink:href="#SVGID_87_"  style="overflow:visible;"/>
					</clipPath>
					<g class="st4">
						<defs>
							<path id="SVGID_89_" d="M6.4,6.6H2.3C2.1,6.6,2,6.5,2,6.3V2.6c0-0.2,0.2-0.3,0.3-0.3h4.1c0.2,0,0.3,0.1,0.3,0.3v3.8
								C6.7,6.5,6.5,6.6,6.4,6.6"/>
						</defs>
						<clipPath id="SVGID_10_">
							<use xlink:href="#SVGID_89_"  style="overflow:visible;"/>
						</clipPath>
						<g class="st5">
							<defs>
								<rect id="SVGID_91_" x="2" y="2.2" width="4.9" height="4.9"/>
							</defs>
							<clipPath id="SVGID_12_">
								<use xlink:href="#SVGID_91_"  style="overflow:visible;"/>
							</clipPath>
							<rect x="-1.1" y="-0.8" class="st6" width="10.8" height="10.5"/>
						</g>
					</g>
				</g>
			</g>
		</g>
	</g>
	<g class="st1">
		<defs>
			<rect id="SVGID_93_" x="7.8" y="2.2" width="10.6" height="4.4"/>
		</defs>
		<clipPath id="SVGID_14_">
			<use xlink:href="#SVGID_93_"  style="overflow:visible;"/>
		</clipPath>
		<g class="st7">
			<defs>
				<rect id="SVGID_95_" x="2" y="2.2" width="17" height="15.2"/>
			</defs>
			<clipPath id="SVGID_16_">
				<use xlink:href="#SVGID_95_"  style="overflow:visible;"/>
			</clipPath>
			<g class="st8">
				<g>
					<defs>
						<rect id="SVGID_97_" x="7.4" y="2.2" width="10.9" height="4.9"/>
					</defs>
					<clipPath id="SVGID_18_">
						<use xlink:href="#SVGID_97_"  style="overflow:visible;"/>
					</clipPath>
					<g class="st9">
						<defs>
							<path id="SVGID_99_" d="M18,6.6H8.1c-0.2,0-0.3-0.1-0.3-0.3V2.6c0-0.2,0.1-0.3,0.3-0.3H18c0.2,0,0.3,0.1,0.3,0.3v3.8
								C18.3,6.5,18.2,6.6,18,6.6"/>
						</defs>
						<clipPath id="SVGID_20_">
							<use xlink:href="#SVGID_99_"  style="overflow:visible;"/>
						</clipPath>
						<g class="st10">
							<defs>
								<rect id="SVGID_101_" x="7.4" y="2.2" width="10.9" height="4.9"/>
							</defs>
							<clipPath id="SVGID_22_">
								<use xlink:href="#SVGID_101_"  style="overflow:visible;"/>
							</clipPath>
							<rect x="4.7" y="-0.8" class="st11" width="16.6" height="10.5"/>
						</g>
					</g>
				</g>
			</g>
		</g>
	</g>
	<g class="st1">
		<defs>
			<rect id="SVGID_103_" x="7.8" y="7.6" width="10.6" height="4.4"/>
		</defs>
		<clipPath id="SVGID_24_">
			<use xlink:href="#SVGID_103_"  style="overflow:visible;"/>
		</clipPath>
		<g class="st12">
			<defs>
				<rect id="SVGID_105_" x="2" y="2.2" width="17" height="15.2"/>
			</defs>
			<clipPath id="SVGID_26_">
				<use xlink:href="#SVGID_105_"  style="overflow:visible;"/>
			</clipPath>
			<g class="st13">
				<g>
					<defs>
						<rect id="SVGID_107_" x="7.4" y="7.1" width="10.9" height="5.5"/>
					</defs>
					<clipPath id="SVGID_28_">
						<use xlink:href="#SVGID_107_"  style="overflow:visible;"/>
					</clipPath>
					<g class="st14">
						<defs>
							<path id="SVGID_109_" d="M18,12H8.1c-0.2,0-0.3-0.1-0.3-0.3V7.9c0-0.2,0.1-0.3,0.3-0.3H18c0.2,0,0.3,0.1,0.3,0.3v3.8
								C18.3,11.9,18.2,12,18,12"/>
						</defs>
						<clipPath id="SVGID_30_">
							<use xlink:href="#SVGID_109_"  style="overflow:visible;"/>
						</clipPath>
						<g class="st15">
							<defs>
								<rect id="SVGID_111_" x="7.4" y="7.1" width="10.9" height="5.5"/>
							</defs>
							<clipPath id="SVGID_32_">
								<use xlink:href="#SVGID_111_"  style="overflow:visible;"/>
							</clipPath>
							<rect x="4.7" y="4.6" class="st16" width="16.6" height="10.5"/>
						</g>
					</g>
				</g>
			</g>
		</g>
	</g>
	<g class="st1">
		<defs>
			<rect id="SVGID_113_" x="7.8" y="13" width="10.6" height="4.4"/>
		</defs>
		<clipPath id="SVGID_34_">
			<use xlink:href="#SVGID_113_"  style="overflow:visible;"/>
		</clipPath>
		<g class="st17">
			<defs>
				<rect id="SVGID_115_" x="2" y="2.2" width="17" height="15.2"/>
			</defs>
			<clipPath id="SVGID_36_">
				<use xlink:href="#SVGID_115_"  style="overflow:visible;"/>
			</clipPath>
			<g class="st18">
				<g>
					<defs>
						<rect id="SVGID_117_" x="7.4" y="12.6" width="10.9" height="4.9"/>
					</defs>
					<clipPath id="SVGID_38_">
						<use xlink:href="#SVGID_117_"  style="overflow:visible;"/>
					</clipPath>
					<g class="st19">
						<defs>
							<path id="SVGID_119_" d="M18,17.4H8.1c-0.2,0-0.3-0.1-0.3-0.3v-3.8c0-0.2,0.1-0.3,0.3-0.3H18c0.2,0,0.3,0.1,0.3,0.3v3.8
								C18.3,17.3,18.2,17.4,18,17.4"/>
						</defs>
						<clipPath id="SVGID_40_">
							<use xlink:href="#SVGID_119_"  style="overflow:visible;"/>
						</clipPath>
						<g class="st20">
							<defs>
								<rect id="SVGID_121_" x="7.4" y="12.6" width="10.9" height="4.9"/>
							</defs>
							<clipPath id="SVGID_42_">
								<use xlink:href="#SVGID_121_"  style="overflow:visible;"/>
							</clipPath>
							<rect x="4.7" y="10" class="st21" width="16.6" height="10.5"/>
						</g>
					</g>
				</g>
			</g>
		</g>
	</g>
	<g class="st1">
		<defs>
			<rect id="SVGID_123_" x="2" y="7.6" width="4.7" height="4.4"/>
		</defs>
		<clipPath id="SVGID_44_">
			<use xlink:href="#SVGID_123_"  style="overflow:visible;"/>
		</clipPath>
		<g class="st22">
			<defs>
				<rect id="SVGID_125_" x="2" y="2.2" width="17" height="15.2"/>
			</defs>
			<clipPath id="SVGID_46_">
				<use xlink:href="#SVGID_125_"  style="overflow:visible;"/>
			</clipPath>
			<g style="clip-path:url(#SVGID_46_);enable-background:new    ;">
				<g>
					<defs>
						<rect id="SVGID_127_" x="2" y="7.1" width="4.9" height="5.5"/>
					</defs>
					<clipPath id="SVGID_48_">
						<use xlink:href="#SVGID_127_"  style="overflow:visible;"/>
					</clipPath>
					<g class="st24">
						<defs>
							<path id="SVGID_129_" d="M6.4,12H2.3C2.1,12,2,11.9,2,11.7V7.9c0-0.2,0.2-0.3,0.3-0.3h4.1c0.2,0,0.3,0.1,0.3,0.3v3.8
								C6.7,11.9,6.5,12,6.4,12"/>
						</defs>
						<clipPath id="SVGID_50_">
							<use xlink:href="#SVGID_129_"  style="overflow:visible;"/>
						</clipPath>
						<g style="clip-path:url(#SVGID_50_);">
							<defs>
								<rect id="SVGID_131_" x="2" y="7.1" width="4.9" height="5.5"/>
							</defs>
							<clipPath id="SVGID_52_">
								<use xlink:href="#SVGID_131_"  style="overflow:visible;"/>
							</clipPath>
							<rect x="-1.1" y="4.6" class="st26" width="10.8" height="10.5"/>
						</g>
					</g>
				</g>
			</g>
		</g>
	</g>
	<g class="st1">
		<defs>
			<rect id="SVGID_133_" x="2" y="13" width="4.7" height="4.4"/>
		</defs>
		<clipPath id="SVGID_54_">
			<use xlink:href="#SVGID_133_"  style="overflow:visible;"/>
		</clipPath>
		<g class="st27">
			<defs>
				<rect id="SVGID_135_" x="2" y="2.2" width="17" height="15.2"/>
			</defs>
			<clipPath id="SVGID_56_">
				<use xlink:href="#SVGID_135_"  style="overflow:visible;"/>
			</clipPath>
			<g style="clip-path:url(#SVGID_56_);enable-background:new    ;">
				<g>
					<defs>
						<rect id="SVGID_137_" x="2" y="12.6" width="4.9" height="4.9"/>
					</defs>
					<clipPath id="SVGID_58_">
						<use xlink:href="#SVGID_137_"  style="overflow:visible;"/>
					</clipPath>
					<g class="st29">
						<defs>
							<path id="SVGID_139_" d="M6.4,17.4H2.3c-0.2,0-0.3-0.1-0.3-0.3v-3.8C2,13.2,2.1,13,2.3,13h4.1c0.2,0,0.3,0.1,0.3,0.3v3.8
								C6.7,17.3,6.5,17.4,6.4,17.4"/>
						</defs>
						<clipPath id="SVGID_60_">
							<use xlink:href="#SVGID_139_"  style="overflow:visible;"/>
						</clipPath>
						<g style="clip-path:url(#SVGID_60_);">
							<defs>
								<rect id="SVGID_141_" x="2" y="12.6" width="4.9" height="4.9"/>
							</defs>
							<clipPath id="SVGID_62_">
								<use xlink:href="#SVGID_141_"  style="overflow:visible;"/>
							</clipPath>
							<rect x="-1.1" y="10" class="st31" width="10.8" height="10.5"/>
						</g>
					</g>
				</g>
			</g>
		</g>
	</g>
</g>
<rect x="-498" y="-972" class="st0" width="1024" height="1972"/>
</svg>
