<?xml version="1.0" encoding="utf-8"?>
<!-- Generator: Adobe Illustrator 21.1.0, SVG Export Plug-In . SVG Version: 6.00 Build 0)  -->
<svg version="1.1" id="Capa_1" xmlns="http://www.w3.org/2000/svg" xmlns:xlink="http://www.w3.org/1999/xlink" x="0px" y="0px"
	 viewBox="0 0 20.2 19.6" style="enable-background:new 0 0 20.2 19.6;" xml:space="preserve">
<style type="text/css">
	.st0{fill:none;}
	.st1{clip-path:url(#SVGID_2_);}
	.st2{clip-path:url(#SVGID_4_);}
	.st3{clip-path:url(#SVGID_6_);enable-background:new    ;}
	.st4{clip-path:url(#SVGID_8_);}
	.st5{clip-path:url(#SVGID_10_);}
	.st6{clip-path:url(#SVGID_12_);}
	.st7{clip-path:url(#SVGID_14_);}
	.st8{clip-path:url(#SVGID_16_);enable-background:new    ;}
	.st9{clip-path:url(#SVGID_18_);}
	.st10{clip-path:url(#SVGID_20_);}
	.st11{clip-path:url(#SVGID_22_);}
	.st12{clip-path:url(#SVGID_24_);}
	.st13{clip-path:url(#SVGID_26_);enable-background:new    ;}
	.st14{clip-path:url(#SVGID_28_);}
	.st15{clip-path:url(#SVGID_30_);}
	.st16{clip-path:url(#SVGID_32_);}
	.st17{clip-path:url(#SVGID_34_);}
	.st18{clip-path:url(#SVGID_36_);enable-background:new    ;}
	.st19{clip-path:url(#SVGID_38_);}
	.st20{clip-path:url(#SVGID_40_);}
	.st21{clip-path:url(#SVGID_42_);}
	.st22{clip-path:url(#SVGID_44_);}
	.st23{clip-path:url(#SVGID_46_);}
	.st24{clip-path:url(#SVGID_48_);}
	.st25{clip-path:url(#SVGID_50_);enable-background:new    ;}
	.st26{clip-path:url(#SVGID_52_);}
	.st27{clip-path:url(#SVGID_54_);}
	.st28{clip-path:url(#SVGID_56_);}
	.st29{clip-path:url(#SVGID_58_);}
	.st30{clip-path:url(#SVGID_60_);enable-background:new    ;}
	.st31{clip-path:url(#SVGID_62_);}
	.st32{clip-path:url(#SVGID_64_);}
	.st33{clip-path:url(#SVGID_66_);}
	.st34{clip-path:url(#SVGID_68_);}
	.st35{clip-path:url(#SVGID_70_);}
	.st36{clip-path:url(#SVGID_72_);}
	.st37{clip-path:url(#SVGID_74_);enable-background:new    ;}
	.st38{clip-path:url(#SVGID_76_);}
	.st39{clip-path:url(#SVGID_78_);}
	.st40{clip-path:url(#SVGID_80_);}
	.st41{clip-path:url(#SVGID_82_);}
	.st42{clip-path:url(#SVGID_84_);}
	.st43{clip-path:url(#SVGID_86_);enable-background:new    ;}
	.st44{clip-path:url(#SVGID_88_);}
	.st45{clip-path:url(#SVGID_90_);}
	.st46{clip-path:url(#SVGID_92_);}
	.st47{clip-path:url(#SVGID_94_);}
	.st48{clip-path:url(#SVGID_96_);enable-background:new    ;}
	.st49{clip-path:url(#SVGID_98_);}
	.st50{clip-path:url(#SVGID_100_);}
	.st51{clip-path:url(#SVGID_102_);}
	.st52{clip-path:url(#SVGID_104_);}
	.st53{clip-path:url(#SVGID_106_);enable-background:new    ;}
	.st54{clip-path:url(#SVGID_108_);}
	.st55{clip-path:url(#SVGID_110_);}
	.st56{clip-path:url(#SVGID_112_);}
	.st57{clip-path:url(#SVGID_114_);}
	.st58{clip-path:url(#SVGID_116_);enable-background:new    ;}
	.st59{clip-path:url(#SVGID_118_);}
	.st60{clip-path:url(#SVGID_120_);}
	.st61{clip-path:url(#SVGID_122_);}
	.st62{clip-path:url(#SVGID_124_);}
	.st63{clip-path:url(#SVGID_126_);enable-background:new    ;}
	.st64{clip-path:url(#SVGID_128_);}
	.st65{clip-path:url(#SVGID_130_);}
	.st66{clip-path:url(#SVGID_132_);}
	.st67{clip-path:url(#SVGID_134_);}
	.st68{clip-path:url(#SVGID_136_);enable-background:new    ;}
	.st69{clip-path:url(#SVGID_138_);}
	.st70{clip-path:url(#SVGID_140_);}
	.st71{clip-path:url(#SVGID_142_);}
</style>
<rect x="-529.3" y="-553.2" class="st0" width="1024" height="1126"/>
<rect x="-501.4" y="-553.2" class="st0" width="1024" height="1126"/>
<g>
	<defs>
		<rect id="SVGID_1_" x="1.9" y="2.2" width="16.4" height="15.2"/>
	</defs>
	<clipPath id="SVGID_2_">
		<use xlink:href="#SVGID_1_"  style="overflow:visible;"/>
	</clipPath>
	<g class="st1">
		<defs>
			<rect id="SVGID_3_" x="1.9" y="2.2" width="4.7" height="4.4"/>
		</defs>
		<clipPath id="SVGID_4_">
			<use xlink:href="#SVGID_3_"  style="overflow:visible;"/>
		</clipPath>
		<g class="st2">
			<defs>
				<rect id="SVGID_5_" x="1.9" y="2.2" width="16.4" height="15.2"/>
			</defs>
			<clipPath id="SVGID_6_">
				<use xlink:href="#SVGID_5_"  style="overflow:visible;"/>
			</clipPath>
			<g class="st3">
				<g>
					<defs>
						<rect id="SVGID_7_" x="1.9" y="2.2" width="4.9" height="4.9"/>
					</defs>
					<clipPath id="SVGID_8_">
						<use xlink:href="#SVGID_7_"  style="overflow:visible;"/>
					</clipPath>
					<g class="st4">
						<defs>
							<path id="SVGID_9_" d="M6.3,6.6H2.2c-0.2,0-0.3-0.1-0.3-0.3V2.6c0-0.2,0.2-0.3,0.3-0.3h4.1c0.2,0,0.3,0.1,0.3,0.3v3.8
								C6.6,6.5,6.5,6.6,6.3,6.6"/>
						</defs>
						<clipPath id="SVGID_10_">
							<use xlink:href="#SVGID_9_"  style="overflow:visible;"/>
						</clipPath>
						<g class="st5">
							<defs>
								<rect id="SVGID_11_" x="1.9" y="2.2" width="4.9" height="4.9"/>
							</defs>
							<clipPath id="SVGID_12_">
								<use xlink:href="#SVGID_11_"  style="overflow:visible;"/>
							</clipPath>
							<rect x="-1.1" y="-0.8" class="st6" width="10.8" height="10.5"/>
						</g>
					</g>
				</g>
			</g>
		</g>
	</g>
	<g class="st1">
		<defs>
			<rect id="SVGID_13_" x="7.7" y="2.2" width="4.7" height="4.4"/>
		</defs>
		<clipPath id="SVGID_14_">
			<use xlink:href="#SVGID_13_"  style="overflow:visible;"/>
		</clipPath>
		<g class="st7">
			<defs>
				<rect id="SVGID_15_" x="1.9" y="2.2" width="16.4" height="15.2"/>
			</defs>
			<clipPath id="SVGID_16_">
				<use xlink:href="#SVGID_15_"  style="overflow:visible;"/>
			</clipPath>
			<g class="st8">
				<g>
					<defs>
						<rect id="SVGID_17_" x="7.4" y="2.2" width="5.5" height="4.9"/>
					</defs>
					<clipPath id="SVGID_18_">
						<use xlink:href="#SVGID_17_"  style="overflow:visible;"/>
					</clipPath>
					<g class="st9">
						<defs>
							<path id="SVGID_19_" d="M12.1,6.6H8.1c-0.2,0-0.3-0.1-0.3-0.3V2.6c0-0.2,0.2-0.3,0.3-0.3h4.1c0.2,0,0.3,0.1,0.3,0.3v3.8
								C12.5,6.5,12.3,6.6,12.1,6.6"/>
						</defs>
						<clipPath id="SVGID_20_">
							<use xlink:href="#SVGID_19_"  style="overflow:visible;"/>
						</clipPath>
						<g class="st10">
							<defs>
								<rect id="SVGID_21_" x="7.4" y="2.2" width="5.5" height="4.9"/>
							</defs>
							<clipPath id="SVGID_22_">
								<use xlink:href="#SVGID_21_"  style="overflow:visible;"/>
							</clipPath>
							<rect x="4.7" y="-0.8" class="st11" width="10.8" height="10.5"/>
						</g>
					</g>
				</g>
			</g>
		</g>
	</g>
	<g class="st1">
		<defs>
			<rect id="SVGID_23_" x="13.5" y="2.2" width="4.7" height="4.4"/>
		</defs>
		<clipPath id="SVGID_24_">
			<use xlink:href="#SVGID_23_"  style="overflow:visible;"/>
		</clipPath>
		<g class="st12">
			<defs>
				<rect id="SVGID_25_" x="1.9" y="2.2" width="16.4" height="15.2"/>
			</defs>
			<clipPath id="SVGID_26_">
				<use xlink:href="#SVGID_25_"  style="overflow:visible;"/>
			</clipPath>
			<g class="st13">
				<g>
					<defs>
						<rect id="SVGID_27_" x="13.4" y="2.2" width="4.9" height="4.9"/>
					</defs>
					<clipPath id="SVGID_28_">
						<use xlink:href="#SVGID_27_"  style="overflow:visible;"/>
					</clipPath>
					<g class="st14">
						<defs>
							<path id="SVGID_29_" d="M17.9,6.6h-4.1c-0.2,0-0.3-0.1-0.3-0.3V2.6c0-0.2,0.2-0.3,0.3-0.3h4.1c0.2,0,0.3,0.1,0.3,0.3v3.8
								C18.3,6.5,18.1,6.6,17.9,6.6"/>
						</defs>
						<clipPath id="SVGID_30_">
							<use xlink:href="#SVGID_29_"  style="overflow:visible;"/>
						</clipPath>
						<g class="st15">
							<defs>
								<rect id="SVGID_31_" x="13.4" y="2.2" width="4.9" height="4.9"/>
							</defs>
							<clipPath id="SVGID_32_">
								<use xlink:href="#SVGID_31_"  style="overflow:visible;"/>
							</clipPath>
							<rect x="10.5" y="-0.8" class="st16" width="10.8" height="10.5"/>
						</g>
					</g>
				</g>
			</g>
		</g>
	</g>
	<g class="st1">
		<defs>
			<rect id="SVGID_33_" x="1.9" y="7.6" width="4.7" height="4.4"/>
		</defs>
		<clipPath id="SVGID_34_">
			<use xlink:href="#SVGID_33_"  style="overflow:visible;"/>
		</clipPath>
		<g class="st17">
			<defs>
				<rect id="SVGID_35_" x="1.9" y="2.2" width="16.4" height="15.2"/>
			</defs>
			<clipPath id="SVGID_36_">
				<use xlink:href="#SVGID_35_"  style="overflow:visible;"/>
			</clipPath>
			<g class="st18">
				<g>
					<defs>
						<rect id="SVGID_37_" x="1.9" y="7.1" width="4.9" height="5.5"/>
					</defs>
					<clipPath id="SVGID_38_">
						<use xlink:href="#SVGID_37_"  style="overflow:visible;"/>
					</clipPath>
					<g class="st19">
						<defs>
							<path id="SVGID_39_" d="M6.3,12H2.2c-0.2,0-0.3-0.1-0.3-0.3V7.9c0-0.2,0.2-0.3,0.3-0.3h4.1c0.2,0,0.3,0.1,0.3,0.3v3.8
								C6.6,11.9,6.5,12,6.3,12"/>
						</defs>
						<clipPath id="SVGID_40_">
							<use xlink:href="#SVGID_39_"  style="overflow:visible;"/>
						</clipPath>
						<g class="st20">
							<defs>
								<rect id="SVGID_41_" x="1.9" y="7.1" width="4.9" height="5.5"/>
							</defs>
							<clipPath id="SVGID_42_">
								<use xlink:href="#SVGID_41_"  style="overflow:visible;"/>
							</clipPath>
							<rect x="-1.1" y="4.6" class="st21" width="10.8" height="10.5"/>
						</g>
					</g>
				</g>
			</g>
		</g>
	</g>
	<g class="st1">
		<defs>
			<path id="SVGID_43_" d="M12.1,12H8.1c-0.2,0-0.3-0.1-0.3-0.3V7.9c0-0.2,0.2-0.3,0.3-0.3h4.1c0.2,0,0.3,0.1,0.3,0.3v3.8
				C12.5,11.9,12.3,12,12.1,12"/>
		</defs>
		<clipPath id="SVGID_44_">
			<use xlink:href="#SVGID_43_"  style="overflow:visible;"/>
		</clipPath>
		<g class="st22">
			<defs>
				<rect id="SVGID_45_" x="1.9" y="2.2" width="16.4" height="15.2"/>
			</defs>
			<clipPath id="SVGID_46_">
				<use xlink:href="#SVGID_45_"  style="overflow:visible;"/>
			</clipPath>
			<rect x="4.7" y="4.6" class="st23" width="10.8" height="10.5"/>
		</g>
	</g>
	<g class="st1">
		<defs>
			<rect id="SVGID_47_" x="13.5" y="7.6" width="4.7" height="4.4"/>
		</defs>
		<clipPath id="SVGID_48_">
			<use xlink:href="#SVGID_47_"  style="overflow:visible;"/>
		</clipPath>
		<g class="st24">
			<defs>
				<rect id="SVGID_49_" x="1.9" y="2.2" width="16.4" height="15.2"/>
			</defs>
			<clipPath id="SVGID_50_">
				<use xlink:href="#SVGID_49_"  style="overflow:visible;"/>
			</clipPath>
			<g class="st25">
				<g>
					<defs>
						<rect id="SVGID_51_" x="13.4" y="7.1" width="4.9" height="5.5"/>
					</defs>
					<clipPath id="SVGID_52_">
						<use xlink:href="#SVGID_51_"  style="overflow:visible;"/>
					</clipPath>
					<g class="st26">
						<defs>
							<path id="SVGID_53_" d="M17.9,12h-4.1c-0.2,0-0.3-0.1-0.3-0.3V7.9c0-0.2,0.2-0.3,0.3-0.3h4.1c0.2,0,0.3,0.1,0.3,0.3v3.8
								C18.3,11.9,18.1,12,17.9,12"/>
						</defs>
						<clipPath id="SVGID_54_">
							<use xlink:href="#SVGID_53_"  style="overflow:visible;"/>
						</clipPath>
						<g class="st27">
							<defs>
								<rect id="SVGID_55_" x="13.4" y="7.1" width="4.9" height="5.5"/>
							</defs>
							<clipPath id="SVGID_56_">
								<use xlink:href="#SVGID_55_"  style="overflow:visible;"/>
							</clipPath>
							<rect x="10.5" y="4.6" class="st28" width="10.8" height="10.5"/>
						</g>
					</g>
				</g>
			</g>
		</g>
	</g>
	<g class="st1">
		<defs>
			<rect id="SVGID_57_" x="1.9" y="13" width="4.7" height="4.4"/>
		</defs>
		<clipPath id="SVGID_58_">
			<use xlink:href="#SVGID_57_"  style="overflow:visible;"/>
		</clipPath>
		<g class="st29">
			<defs>
				<rect id="SVGID_59_" x="1.9" y="2.2" width="16.4" height="15.2"/>
			</defs>
			<clipPath id="SVGID_60_">
				<use xlink:href="#SVGID_59_"  style="overflow:visible;"/>
			</clipPath>
			<g class="st30">
				<g>
					<defs>
						<rect id="SVGID_61_" x="1.9" y="12.6" width="4.9" height="4.9"/>
					</defs>
					<clipPath id="SVGID_62_">
						<use xlink:href="#SVGID_61_"  style="overflow:visible;"/>
					</clipPath>
					<g class="st31">
						<defs>
							<path id="SVGID_63_" d="M6.3,17.4H2.2c-0.2,0-0.3-0.1-0.3-0.3v-3.8c0-0.2,0.2-0.3,0.3-0.3h4.1c0.2,0,0.3,0.1,0.3,0.3v3.8
								C6.6,17.3,6.5,17.4,6.3,17.4"/>
						</defs>
						<clipPath id="SVGID_64_">
							<use xlink:href="#SVGID_63_"  style="overflow:visible;"/>
						</clipPath>
						<g class="st32">
							<defs>
								<rect id="SVGID_65_" x="1.9" y="12.6" width="4.9" height="4.9"/>
							</defs>
							<clipPath id="SVGID_66_">
								<use xlink:href="#SVGID_65_"  style="overflow:visible;"/>
							</clipPath>
							<rect x="-1.1" y="10" class="st33" width="10.8" height="10.5"/>
						</g>
					</g>
				</g>
			</g>
		</g>
	</g>
	<g class="st1">
		<defs>
			<path id="SVGID_67_" d="M12.1,17.4H8.1c-0.2,0-0.3-0.1-0.3-0.3v-3.8c0-0.2,0.2-0.3,0.3-0.3h4.1c0.2,0,0.3,0.1,0.3,0.3v3.8
				C12.5,17.3,12.3,17.4,12.1,17.4"/>
		</defs>
		<clipPath id="SVGID_68_">
			<use xlink:href="#SVGID_67_"  style="overflow:visible;"/>
		</clipPath>
		<g class="st34">
			<defs>
				<rect id="SVGID_69_" x="1.9" y="2.2" width="16.4" height="15.2"/>
			</defs>
			<clipPath id="SVGID_70_">
				<use xlink:href="#SVGID_69_"  style="overflow:visible;"/>
			</clipPath>
			<rect x="4.7" y="10" class="st35" width="10.8" height="10.5"/>
		</g>
	</g>
	<g class="st1">
		<defs>
			<rect id="SVGID_71_" x="13.5" y="13" width="4.7" height="4.4"/>
		</defs>
		<clipPath id="SVGID_72_">
			<use xlink:href="#SVGID_71_"  style="overflow:visible;"/>
		</clipPath>
		<g class="st36">
			<defs>
				<rect id="SVGID_73_" x="1.9" y="2.2" width="16.4" height="15.2"/>
			</defs>
			<clipPath id="SVGID_74_">
				<use xlink:href="#SVGID_73_"  style="overflow:visible;"/>
			</clipPath>
			<g class="st37">
				<g>
					<defs>
						<rect id="SVGID_75_" x="13.4" y="12.6" width="4.9" height="4.9"/>
					</defs>
					<clipPath id="SVGID_76_">
						<use xlink:href="#SVGID_75_"  style="overflow:visible;"/>
					</clipPath>
					<g class="st38">
						<defs>
							<path id="SVGID_77_" d="M17.9,17.4h-4.1c-0.2,0-0.3-0.1-0.3-0.3v-3.8c0-0.2,0.2-0.3,0.3-0.3h4.1c0.2,0,0.3,0.1,0.3,0.3v3.8
								C18.3,17.3,18.1,17.4,17.9,17.4"/>
						</defs>
						<clipPath id="SVGID_78_">
							<use xlink:href="#SVGID_77_"  style="overflow:visible;"/>
						</clipPath>
						<g class="st39">
							<defs>
								<rect id="SVGID_79_" x="13.4" y="12.6" width="4.9" height="4.9"/>
							</defs>
							<clipPath id="SVGID_80_">
								<use xlink:href="#SVGID_79_"  style="overflow:visible;"/>
							</clipPath>
							<rect x="10.5" y="10" class="st40" width="10.8" height="10.5"/>
						</g>
					</g>
				</g>
			</g>
		</g>
	</g>
</g>
<rect x="-525.9" y="-972" class="st0" width="1024" height="1972"/>
<rect x="-525.9" y="-972" class="st0" width="1024" height="1972"/>
</svg>
