<?xml version="1.0" encoding="utf-8"?>
<!-- Generator: Adobe Illustrator 21.1.0, SVG Export Plug-In . SVG Version: 6.00 Build 0)  -->
<svg version="1.1" id="Capa_1" xmlns="http://www.w3.org/2000/svg" xmlns:xlink="http://www.w3.org/1999/xlink" x="0px" y="0px"
	 viewBox="0 0 20.2 19.6" style="enable-background:new 0 0 20.2 19.6;" xml:space="preserve">
<style type="text/css">
	.st0{fill:none;}
	.st1{fill:#FFFFFF;}
</style>
<rect x="-529.3" y="-553.2" class="st0" width="1024" height="1126"/>
<rect x="-501.4" y="-553.2" class="st0" width="1024" height="1126"/>
<g>
	<path class="st1" d="M14.3,0.9c0.6,0.1,0.9,0.5,1.3,1C15.8,2,16,2.2,16.2,2.4c0.4,0.4,0.7,0.8,0.6,1.4c0,0.4-0.2,0.7-0.5,1
		c-0.5,0.6-1.2,1-1.9,1.3c-0.9,0.4-1.8,0.7-2.7,1c0,0-0.1,0-0.2,0.1c0.2,0.1,0.4,0.2,0.5,0.3c0.4,0.2,0.8,0.4,1.1,0.6
		c0.1,0.1,0.1,0.1,0.1,0.2c0,0.8,0,1.6,0,2.4c0,0.1,0,0.1,0,0.2c0.1,0,0.2-0.1,0.2-0.1c0.4-0.2,0.8-0.4,1.3-0.6C15,10,15,10,15,9.9
		c0-0.8,0-1.6,0-2.5c0,0-0.1-0.1-0.1-0.1c-0.3-0.1-0.6-0.3-1-0.4c0.2-0.1,0.5-0.2,0.7-0.3c0.8-0.4,1.5-0.7,2.1-1.3c0,0,0.1,0,0.2,0
		c0.4,0.1,0.8,0.3,1.3,0.4c0.2,0.1,0.3,0.3,0.3,0.5c0,0.8,0,1.6,0,2.4c0,0.3-0.1,0.4-0.4,0.5c-1.1,0.5-2.1,1.1-3.2,1.6
		c-1,0.5-2,1-3,1.5c-0.3,0.2-0.6,0.3-0.9,0.5c-0.2,0.1-0.4,0.1-0.6,0c-1.1-0.5-2.1-1.1-3.2-1.6c-1-0.5-2-1-3-1.5
		c-0.3-0.2-0.7-0.3-1-0.5C3,9,2.8,8.8,2.8,8.6c0-0.8,0-1.6,0-2.4c0-0.3,0.1-0.4,0.4-0.5C3.6,5.5,4,5.4,4.4,5.3c0.1,0,0.1,0,0.2,0.1
		C5,5.7,5.5,6.1,6,6.3c0.4,0.2,0.8,0.4,1.2,0.6c0,0,0.1,0,0.1,0.1C7,7.1,6.7,7.2,6.4,7.3c-0.1,0-0.2,0.1-0.2,0.3c0,0.8,0,1.5,0,2.3
		c0,0.1,0,0.2,0.1,0.2c0.4,0.2,0.9,0.4,1.3,0.7c0,0,0.1,0,0.1,0.1c0-0.1,0-0.1,0-0.2c0-0.8,0-1.6,0-2.4c0-0.1,0-0.2,0.1-0.2
		c0.5-0.3,1-0.5,1.5-0.8c0.1,0,0.1-0.1,0.2-0.1C9.3,7,9,6.9,8.7,6.8C7.7,6.5,6.8,6.2,6,5.7C5.5,5.4,5,5,4.6,4.5
		C4.2,3.8,4.3,3.1,4.9,2.6c0.3-0.3,0.5-0.5,0.8-0.8C5.8,1.7,5.9,1.6,6,1.5C6.2,1.2,6.5,1,6.9,0.9c0.1,0,0.3,0,0.4,0c0,0,0,0,0,0
		C7.9,1,8.3,1.3,8.6,1.7c0.5,0.5,0.8,1.1,1,1.7C10,4.2,10.3,5,10.5,5.8c0,0.1,0.1,0.2,0.1,0.3c0,0,0,0,0,0c0,0,0-0.1,0-0.1
		C11,4.7,11.4,3.6,12,2.5c0.3-0.5,0.7-1,1.2-1.4C13.4,1,13.7,1,13.9,0.9C14,0.9,14.1,0.9,14.3,0.9z M9.8,6.4c0-0.1,0-0.1-0.1-0.2
		C9.6,5.5,9.4,4.9,9.2,4.3C8.9,3.7,8.7,3.1,8.3,2.5C8,2.2,7.7,1.9,7.4,1.7C7.2,1.6,7,1.6,6.8,1.8C6.7,1.9,6.6,1.9,6.5,2
		C6.3,2.3,6.1,2.5,5.9,2.7C5.8,2.9,5.6,3,5.4,3.2C5.1,3.5,5.1,3.7,5.3,4C5.6,4.5,6,4.8,6.5,5c0.9,0.5,1.8,0.8,2.8,1.1
		C9.5,6.2,9.6,6.3,9.8,6.4z M11.4,6.3c0.1,0,0.1,0,0.1,0c1.1-0.3,2.2-0.7,3.2-1.3c0.4-0.2,0.8-0.5,1.1-0.9c0.3-0.4,0.3-0.6-0.1-1
		c-0.2-0.2-0.5-0.5-0.7-0.7c-0.2-0.2-0.3-0.4-0.5-0.6c-0.3-0.3-0.5-0.3-0.8-0.1c-0.5,0.3-0.8,0.7-1.1,1.2c-0.4,0.6-0.6,1.3-0.9,2
		C11.7,5.4,11.5,5.9,11.4,6.3z"/>
	<path class="st1" d="M3.6,9.9c0.3,0.1,0.5,0.3,0.8,0.4c0.2,0.1,0.2,0.2,0.2,0.4c0,1.1,0,2.1,0,3.2c0,0.1,0,0.2,0.1,0.2
		c1.2,0.7,2.4,1.4,3.7,2.1c0.5,0.3,1,0.6,1.5,0.9c0,0,0,0,0.1,0c0-1.3,0-2.6,0-4c0.6,0.1,0.6,0.1,1.1,0c0,1.3,0,2.7,0,4
		c0.2-0.1,0.4-0.2,0.6-0.3c0.8-0.5,1.6-0.9,2.4-1.4c0.8-0.5,1.6-0.9,2.4-1.4c0,0,0.1-0.1,0.1-0.2c0-0.7,0-1.5,0-2.2
		c0-0.4,0-0.8,0-1.2c0-0.1,0-0.1,0.1-0.2c0.3-0.1,0.6-0.3,1-0.5c0,0.1,0,0.1,0,0.2c0,1.4,0,2.8,0,4.2c0,0.3-0.1,0.5-0.3,0.6
		c-0.9,0.5-1.9,1.1-2.8,1.6c-0.9,0.5-1.7,1-2.6,1.5c-0.3,0.2-0.7,0.4-1,0.6c-0.2,0.1-0.4,0.1-0.6,0c-1-0.6-2-1.2-3-1.7
		c-0.9-0.5-1.9-1.1-2.8-1.6c-0.2-0.1-0.5-0.3-0.7-0.4c-0.2-0.1-0.2-0.2-0.2-0.4C3.6,12.9,3.6,11.4,3.6,9.9C3.6,10,3.6,10,3.6,9.9z"
		/>
	<path class="st1" d="M10.6,5.8c-0.2-0.4-0.3-0.9-0.5-1.3c0.4-0.2,0.7-0.2,1.1,0C11,4.9,10.8,5.4,10.6,5.8
		C10.6,5.8,10.6,5.8,10.6,5.8z"/>
</g>
</svg>
