<?xml version="1.0" encoding="utf-8"?>
<!-- Generator: Adobe Illustrator 21.1.0, SVG Export Plug-In . SVG Version: 6.00 Build 0)  -->
<svg version="1.1" id="Capa_1" xmlns="http://www.w3.org/2000/svg" xmlns:xlink="http://www.w3.org/1999/xlink" x="0px" y="0px"
	 viewBox="0 0 20.2 19.6" style="enable-background:new 0 0 20.2 19.6;" xml:space="preserve">
<style type="text/css">
	.st0{clip-path:url(#SVGID_2_);}
	.st1{clip-path:url(#SVGID_4_);enable-background:new    ;}
	.st2{clip-path:url(#SVGID_6_);}
	.st3{clip-path:url(#SVGID_8_);}
	.st4{clip-path:url(#SVGID_10_);}
	.st5{clip-path:url(#SVGID_12_);}
	.st6{clip-path:url(#SVGID_14_);enable-background:new    ;}
	.st7{clip-path:url(#SVGID_16_);}
	.st8{clip-path:url(#SVGID_18_);}
	.st9{clip-path:url(#SVGID_20_);}
	.st10{clip-path:url(#SVGID_22_);}
	.st11{clip-path:url(#SVGID_24_);}
	.st12{clip-path:url(#SVGID_26_);}
	.st13{clip-path:url(#SVGID_28_);}
	.st14{clip-path:url(#SVGID_30_);}
	.st15{clip-path:url(#SVGID_32_);}
	.st16{fill:none;}
</style>
<g>
	<defs>
		<rect id="SVGID_1_" x="1.2" y="0.9" width="17.7" height="17.8"/>
	</defs>
	<clipPath id="SVGID_2_">
		<use xlink:href="#SVGID_1_"  style="overflow:visible;"/>
	</clipPath>
	<g class="st0">
		<defs>
			<rect id="SVGID_3_" x="1.2" y="0.9" width="17.8" height="17.8"/>
		</defs>
		<clipPath id="SVGID_4_">
			<use xlink:href="#SVGID_3_"  style="overflow:visible;"/>
		</clipPath>
		<g class="st1">
			<g>
				<defs>
					<rect id="SVGID_5_" x="1.2" y="0.9" width="17.8" height="17.8"/>
				</defs>
				<clipPath id="SVGID_6_">
					<use xlink:href="#SVGID_5_"  style="overflow:visible;"/>
				</clipPath>
				<g class="st2">
					<defs>
						<path id="SVGID_7_" d="M9.7,0.9h0.7c0,0,0.1,0,0.1,0c1.6,0.2,2.9,1.5,3.1,3.2c0,0.3,0,0.6,0,1H19v13.6H1.2V5.1h5.3
							c0-0.1,0-0.2,0-0.3C6.4,3.1,7.3,1.7,8.9,1.1C9.2,1.1,9.5,1,9.7,0.9z M2.3,8.2v3.1h0.5v1H2.3v3.2h15.7v-3.2h-0.5v-1h0.5V8.2
							c0,0-0.1,0-0.1,0c-1.9,0-3.7,0-5.6,0c-0.1,0-0.2,0-0.2,0.1c-0.6,0.9-1.2,1.8-1.8,2.7c0,0-0.1,0.1-0.1,0.2
							c0-0.1-0.1-0.1-0.1-0.1c-0.6-0.9-1.2-1.8-1.8-2.7C8.1,8.3,8.1,8.2,8,8.2c-1,0-2,0-3,0H2.3z M10.1,9.3
							C10.1,9.3,10.1,9.3,10.1,9.3c0.8-1.2,1.5-2.2,2.2-3.3c0.2-0.3,0.3-0.7,0.4-1c0.3-1.8-1.2-3.2-3-3C8.1,2.2,7.1,3.9,7.7,5.5
							c0.1,0.4,0.4,0.7,0.6,1C8.8,7.4,9.5,8.4,10.1,9.3z M2.3,17.7h15.7v-1H2.3V17.7z M7.4,7.2C7.2,6.9,7.1,6.6,6.9,6.3
							C6.8,6.2,6.8,6.1,6.6,6.1c-1.4,0-2.8,0-4.2,0H2.3v1H7.4z M17.9,6.2C17.9,6.2,17.9,6.1,17.9,6.2c-1.5,0-3,0-4.4,0
							c0,0-0.1,0-0.1,0c-0.2,0.3-0.4,0.6-0.6,1h5.2V6.2z"/>
					</defs>
					<clipPath id="SVGID_8_">
						<use xlink:href="#SVGID_7_"  style="overflow:visible;"/>
					</clipPath>
					<g class="st3">
						<defs>
							<rect id="SVGID_9_" x="1.2" y="0.9" width="17.8" height="17.8"/>
						</defs>
						<clipPath id="SVGID_10_">
							<use xlink:href="#SVGID_9_"  style="overflow:visible;"/>
						</clipPath>
						<rect x="-0.3" y="-0.6" class="st4" width="20.8" height="20.8"/>
					</g>
				</g>
			</g>
		</g>
	</g>
</g>
<g>
	<defs>
		<rect id="SVGID_11_" x="1.2" y="0.9" width="17.8" height="17.8"/>
	</defs>
	<clipPath id="SVGID_12_">
		<use xlink:href="#SVGID_11_"  style="overflow:visible;"/>
	</clipPath>
	<g class="st5">
		<defs>
			<rect id="SVGID_13_" x="1.2" y="0.6" width="17.8" height="17.8"/>
		</defs>
		<clipPath id="SVGID_14_">
			<use xlink:href="#SVGID_13_"  style="overflow:visible;"/>
		</clipPath>
		<g class="st6">
			<g>
				<defs>
					<rect id="SVGID_15_" x="4.9" y="2.5" width="10.4" height="10.1"/>
				</defs>
				<clipPath id="SVGID_16_">
					<use xlink:href="#SVGID_15_"  style="overflow:visible;"/>
				</clipPath>
				<g class="st7">
					<defs>
						<rect id="SVGID_17_" x="4.9" y="11.4" width="2.1" height="1.2"/>
					</defs>
					<clipPath id="SVGID_18_">
						<use xlink:href="#SVGID_17_"  style="overflow:visible;"/>
					</clipPath>
					<g class="st8">
						<defs>
							<rect id="SVGID_19_" x="1.2" y="0.9" width="17.8" height="17.5"/>
						</defs>
						<clipPath id="SVGID_20_">
							<use xlink:href="#SVGID_19_"  style="overflow:visible;"/>
						</clipPath>
						<rect x="3.3" y="9.8" class="st9" width="5.2" height="4.3"/>
					</g>
				</g>
				<g class="st7">
					<defs>
						<rect id="SVGID_21_" x="13.2" y="11.4" width="2.1" height="1.2"/>
					</defs>
					<clipPath id="SVGID_22_">
						<use xlink:href="#SVGID_21_"  style="overflow:visible;"/>
					</clipPath>
					<g class="st10">
						<defs>
							<rect id="SVGID_23_" x="1.2" y="0.9" width="17.8" height="17.5"/>
						</defs>
						<clipPath id="SVGID_24_">
							<use xlink:href="#SVGID_23_"  style="overflow:visible;"/>
						</clipPath>
						<rect x="11.6" y="9.8" class="st11" width="5.2" height="4.3"/>
					</g>
				</g>
				<g class="st7">
					<defs>
						<rect id="SVGID_25_" x="9.2" y="11.4" width="2.1" height="1.2"/>
					</defs>
					<clipPath id="SVGID_26_">
						<use xlink:href="#SVGID_25_"  style="overflow:visible;"/>
					</clipPath>
					<g class="st12">
						<defs>
							<rect id="SVGID_27_" x="1.2" y="0.9" width="17.8" height="17.5"/>
						</defs>
						<clipPath id="SVGID_28_">
							<use xlink:href="#SVGID_27_"  style="overflow:visible;"/>
						</clipPath>
						<rect x="7.6" y="9.8" class="st13" width="5.2" height="4.3"/>
					</g>
				</g>
				<g class="st7">
					<defs>
						<path id="SVGID_29_" d="M11.3,4.4c0,0.9-0.6,1.7-1.4,1.7c-0.8,0-1.4-0.8-1.4-1.7c0-0.9,0.6-1.7,1.4-1.7
							C10.7,2.8,11.3,3.5,11.3,4.4 M9.9,5c0.3,0,0.5-0.3,0.5-0.6c0-0.3-0.2-0.6-0.5-0.6c-0.2,0-0.5,0.3-0.5,0.6C9.5,4.8,9.7,5,9.9,5
							"/>
					</defs>
					<clipPath id="SVGID_30_">
						<use xlink:href="#SVGID_29_"  style="overflow:visible;"/>
					</clipPath>
					<g class="st14">
						<defs>
							<rect id="SVGID_31_" x="1.2" y="0.9" width="17.8" height="17.5"/>
						</defs>
						<clipPath id="SVGID_32_">
							<use xlink:href="#SVGID_31_"  style="overflow:visible;"/>
						</clipPath>
						<rect x="7" y="1.2" class="st15" width="5.8" height="6.4"/>
					</g>
				</g>
			</g>
		</g>
	</g>
</g>
<rect x="1.2" y="0.9" class="st16" width="17.8" height="17.8"/>
<rect x="-501.4" y="-553.2" class="st16" width="1024" height="1126"/>
</svg>
