<?xml version="1.0" encoding="utf-8"?>
<!-- Generator: Adobe Illustrator 21.1.0, SVG Export Plug-In . SVG Version: 6.00 Build 0)  -->
<svg version="1.1" id="Capa_1" xmlns="http://www.w3.org/2000/svg" xmlns:xlink="http://www.w3.org/1999/xlink" x="0px" y="0px"
	 viewBox="0 0 392.1 377.9" style="enable-background:new 0 0 392.1 377.9;" xml:space="preserve">
<g>
	<path d="M355.3,112.2c-0.8-0.6-1.9-0.8-2.9-0.4l-72.1,24c6.3-13.5,10.7-26.4,10.7-35.9c0-36.2-29.4-65.6-65.6-65.6
		c-36.2,0-65.6,29.5-65.6,65.6c0,5.2,1.3,11.4,3.4,18.1l-18.6-6.2c-0.1,0-0.2,0-0.3,0c-0.2-0.1-0.5-0.1-0.7-0.1
		c-0.2,0-0.5,0-0.7,0.1c-0.1,0-0.2,0-0.3,0l-104.9,35c-1.3,0.4-2.2,1.6-2.2,3v190.8c0,1,0.5,2,1.3,2.6c0.6,0.4,1.2,0.6,1.9,0.6
		c0.3,0,0.7-0.1,1-0.2l103.9-34.6l103.9,34.6l0,0c0.3,0.1,0.7,0.2,1,0.2c0.3,0,0.7-0.1,1-0.2c0,0,0,0,0,0l104.9-35
		c1.3-0.4,2.2-1.6,2.2-3V114.7C356.6,113.7,356.1,112.7,355.3,112.2L355.3,112.2z M140.4,303.2l-98.6,32.8V152l98.6-32.8V303.2z
		 M225.4,39.2c33.4,0,60.6,27.2,60.6,60.6c0,9.9-5,23.7-12.1,38.1c-1.3,2.7-2.7,5.4-4.2,8.1c-5.6,10.5-11.9,21-18,30.5
		c-2.2,3.4-4.3,6.7-6.3,9.7c-7.9,12-14.4,20.9-16.3,23.4l-2.2,2.9c-0.7,0.9-2.3,0.9-3,0l-2.2-2.9c-4.4-6-35.1-48.3-49.5-82
		c-1.1-2.6-2.1-5.2-3-7.7c-2.7-7.6-4.4-14.5-4.4-20.1C164.8,66.4,192,39.2,225.4,39.2L225.4,39.2z M245.3,336.1l-98.6-32.8V119.1
		l19.1,6.4c13.3,33.8,44.2,76.9,51.7,87.1l2.2,2.9c1.3,1.8,3.4,2.8,5.6,2.8c2.2,0,4.3-1.1,5.6-2.8l2.2-2.9
		c1.6-2.1,6.2-8.5,12.2-17.4V336.1z M350.3,303.2l-98.6,32.8V185.7c8-12.3,17.2-27.3,24.7-42l73.9-24.6V303.2z M350.3,303.2"/>
	<path d="M225.4,133.6c15.7,0,28.4-12.8,28.4-28.4c0-15.7-12.8-28.4-28.4-28.4c-15.7,0-28.4,12.8-28.4,28.4
		C196.9,120.9,209.7,133.6,225.4,133.6L225.4,133.6z M225.4,81.8c12.9,0,23.4,10.5,23.4,23.4c0,12.9-10.5,23.4-23.4,23.4
		c-12.9,0-23.4-10.5-23.4-23.4C202,92.3,212.5,81.8,225.4,81.8L225.4,81.8z M225.4,81.8"/>
</g>
</svg>
