<?xml version="1.0" encoding="utf-8"?>
<!-- Generator: Adobe Illustrator 21.1.0, SVG Export Plug-In . SVG Version: 6.00 Build 0)  -->
<svg version="1.1" id="Capa_1" xmlns="http://www.w3.org/2000/svg" xmlns:xlink="http://www.w3.org/1999/xlink" x="0px" y="0px"
	 viewBox="0 0 204.3 197.3" style="enable-background:new 0 0 204.3 197.3;" xml:space="preserve">
<style type="text/css">
	.st0{fill:none;}
</style>
<rect x="-427.9" y="-419" class="st0" width="1024" height="1068"/>
<g>
	<path d="M190.4,197.3c-7.4-7.4-14.8-14.8-22.2-22.1c-8.6-8.6-17.2-17.2-25.8-25.8c-19.7-19.7-39.4-39.3-59.1-59
		c-5.3-5.3-10.7-10.7-16-16C63.8,70.9,60.4,67.5,57,64C39.3,46.3,21.6,28.5,4,10.8c-0.1-0.1-0.3-0.3-0.3-0.3C7.1,7,10.5,3.6,14.1,0
		c0.1,0.1,0.2,0.4,0.4,0.7C30.3,16.5,46.2,32.3,62,48.2c0.5,0.5,0.8,0.5,1.4,0.3c8.1-3.1,16.5-5.2,25.1-6.2c5-0.6,10-1.3,15.1-1.1
		c3.1,0.1,6.2,0.4,9.3,0.7c5.5,0.5,10.9,1.5,16.2,2.9c7.4,1.9,14.6,4.6,21.5,8c10.6,5.1,20.3,11.6,29.2,19.1
		c7.4,6.2,14.2,13,20.1,20.5c1.5,1.9,2.7,3.9,4.1,5.8c0.2,0.3,0.1,0.5-0.1,0.8c-3.4,5.2-7.3,9.9-11.6,14.4
		c-6.5,6.9-13.5,13.1-21.1,18.7c-4.8,3.5-9.9,6.8-15.1,9.7c-0.1,0.1-0.2,0.1-0.3,0.2c15,15,29.9,29.9,44.9,44.9
		c-0.3,0.3-0.5,0.5-0.6,0.7c-3,3.1-6.1,6.1-9.1,9.2c-0.2,0.2-0.3,0.4-0.5,0.6C190.5,197.3,190.5,197.3,190.4,197.3z M77.1,63.4
		c0.3,0.2,0.5,0.3,0.6,0.5c4.9,4.9,9.9,9.7,14.8,14.6c0.5,0.5,0.8,0.5,1.4,0.2c4.1-1.8,8.4-2.2,12.8-1.2c13.3,3,20.5,16.9,15.2,29.5
		c-0.2,0.5-0.1,0.7,0.2,1.1c4.9,5,9.8,10,14.7,14.9c0.2,0.2,0.3,0.3,0.5,0.5c11.5-16.2,10.7-39.9-4.8-55.4
		C116.9,52.5,93.2,52,77.1,63.4z M151.8,127.8c7.6-2.8,29-21.2,33.9-29.1c-9.6-11.9-21-21.7-34.2-29.5
		C162.4,88.8,162.4,108.3,151.8,127.8z"/>
	<path d="M46.1,73.5c-5.2,3.5-10.2,7.4-14.9,11.6c-4.7,4.2-9.1,8.7-13.3,13.5c10,11.5,21.5,21.1,34.8,28.9C43.3,111,42.1,94,49,76.4
		c0.8,0.7,1.4,1.4,2.1,2c2.9,3,5.8,6,8.8,8.9c0.4,0.4,0.4,0.7,0.3,1.2c-3.2,14.9,0.1,28.1,10.4,39.4c6.8,7.5,15.4,12,25.5,13.4
		c5.3,0.7,10.7,0.6,15.9-0.7c0.8-0.2,1.4,0,1.8,0.5c4,4,7.9,7.9,11.9,11.9c0,0,0.1,0.1,0.1,0.3c-2.3,0.4-4.5,0.9-6.8,1.2
		c-3.3,0.5-6.6,0.7-9.9,1.2c-5.1,0.7-10.1,0.4-15.2-0.1c-4.7-0.5-9.4-1.1-14-2c-11.5-2.4-22.3-6.6-32.6-12.3
		c-8.8-4.9-16.9-10.6-24.5-17.2c-7.2-6.3-13.9-13-19.7-20.6c-1.1-1.4-2.1-3-3.1-4.5c-0.2-0.3-0.1-0.5,0.1-0.8
		c3.6-5.6,7.9-10.5,12.5-15.3c6.7-7,14.1-13.4,22-19c0.4-0.3,0.7-0.5,1-0.7C39.2,66.7,42.6,70.1,46.1,73.5z"/>
</g>
</svg>
