<?xml version="1.0" encoding="utf-8"?>
<!-- Generator: Adobe Illustrator 21.1.0, SVG Export Plug-In . SVG Version: 6.00 Build 0)  -->
<svg version="1.1" id="Capa_1" xmlns="http://www.w3.org/2000/svg" xmlns:xlink="http://www.w3.org/1999/xlink" x="0px" y="0px"
	 viewBox="0 0 499.1 500.4" style="enable-background:new 0 0 499.1 500.4;" xml:space="preserve">
<style type="text/css">
	.st0{fill:none;}
</style>
<rect x="-283.6" y="-306.8" class="st0" width="1024" height="1126"/>
<rect x="-255.7" y="-306.8" class="st0" width="1024" height="1126"/>
<g>
	<path d="M247.2,257h-1.9c-10,0-18.1,8.1-18.1,18.1v1.9c0,10,8.1,18.1,18.1,18.1h1.9c10,0,18.1-8.1,18.1-18.1v-1.9
		C265.3,265.1,257.1,257,247.2,257L247.2,257z M251.7,277c0,2.5-2,4.5-4.5,4.5h-1.9c-2.5,0-4.5-2-4.5-4.5v-1.9c0-2.5,2-4.5,4.5-4.5
		h1.9c2.5,0,4.5,2,4.5,4.5V277z M251.7,277"/>
	<path d="M246.2,313.5c-3.8,0-6.8,3-6.8,6.8V340c0,3.8,3,6.8,6.8,6.8c3.8,0,6.8-3,6.8-6.8v-19.8C253,316.5,250,313.5,246.2,313.5
		L246.2,313.5z M246.2,313.5"/>
	<path d="M353,432.9h-77c-13.4,0-24.4-10.9-24.4-24.4v-22.7h17.2c19.5,0,35.4-15.9,35.4-35.4v-93.3h19.4c16.2,0,29.5-13.2,29.5-29.5
		v-83.1c0-11.8-6.9-21.9-16.9-26.6V60.7c0-3.8-3-6.8-6.8-6.8c-3.8,0-6.8,3-6.8,6.8V115H303V60.7c0-3.8-3-6.8-6.8-6.8
		c-3.8,0-6.8,3-6.8,6.8V115h-19.7V60.7c0-3.8-3-6.8-6.8-6.8c-3.8,0-6.8,3-6.8,6.8V115h-19.7V60.7c0-3.8-3-6.8-6.8-6.8
		c-3.8,0-6.8,3-6.8,6.8V115h-19.7V60.7c0-3.8-3-6.8-6.8-6.8c-3.8,0-6.8,3-6.8,6.8V115h-19.7V60.7c0-3.8-3-6.8-6.8-6.8
		s-6.8,3-6.8,6.8v57.1c-10,4.7-16.9,14.9-16.9,26.6v83.1c0,16.2,13.2,29.5,29.5,29.5h19.4v93.3c0,19.5,15.9,35.4,35.4,35.4H238v22.7
		c0,20.9,17,38,38,38h77c3.8,0,6.8-3,6.8-6.8C359.8,435.9,356.7,432.9,353,432.9L353,432.9z M168.8,128.6h154.9
		c8.7,0,15.9,7.1,15.9,15.9v13.8H152.9v-13.8C152.9,135.8,160,128.6,168.8,128.6L168.8,128.6z M201.8,350.4V250.3
		c0-3.8-3-6.8-6.8-6.8h-26.2c-8.8,0-15.9-7.1-15.9-15.9v-55.7h186.6v55.7c0,8.7-7.1,15.9-15.9,15.9h-26.2c-3.8,0-6.8,3-6.8,6.8
		v100.1c0,12-9.8,21.8-21.8,21.8h-45.3C211.6,372.2,201.8,362.4,201.8,350.4L201.8,350.4z M201.8,350.4"/>
</g>
</svg>
