<?xml version="1.0" encoding="utf-8"?>
<!-- Generator: Adobe Illustrator 21.1.0, SVG Export Plug-In . SVG Version: 6.00 Build 0)  -->
<svg version="1.1" id="Capa_1" xmlns="http://www.w3.org/2000/svg" xmlns:xlink="http://www.w3.org/1999/xlink" x="0px" y="0px"
	 viewBox="0 0 249.1 249.4" style="enable-background:new 0 0 249.1 249.4;" xml:space="preserve">
<style type="text/css">
	.st0{fill:none;stroke:#070308;stroke-miterlimit:10;}
	.st1{fill:none;}
</style>
<g>
	<path class="st0" d="M215.7,237.6c-4.7-0.4-9.5-0.8-14.2-1.3c-35.8-4-68.6-16.1-98.2-36.7c-30.5-21.2-53.9-48.7-70.2-82
		c-8.8-18-14.8-37-18.2-56.8c-2-11.6-2.9-23.3-3.1-35.1C11.7,16.8,16.4,12,25.3,12c14.1,0,28.2,0,42.3,0c6.9,0,11.6,3.4,12.8,9.4
		c0.4,1.9,0.4,3.9,0.4,5.9c0.3,13.7,2.6,27,6,40.2c0.5,2,1.4,3.9,1.4,5.9c0,3.1-1.7,5.5-3.9,7.7c-8.6,8.6-17.1,17.2-25.7,25.7
		c-1.4,1.3-1.4,2.3-0.5,3.9c15.3,27.4,35.3,50.6,61.3,68.4c6,4.1,12.4,7.5,18.6,11.3c1.2,0.7,2,0.6,3-0.4
		c8.4-8.4,16.7-16.9,25.2-25.2c3.7-3.6,8.5-5.1,13.4-3.5c14.9,4.7,30,7.2,45.6,7.6c6.6,0.1,9.7,2.9,11.7,9.2
		c0.1,0.2,0.2,0.3,0.4,0.5v48.9c-0.7,1.7-1.3,3.5-2.3,5.1c-1.7,2.9-4.8,4-7.9,5H215.7z"/>
	<path class="st0" d="M237.3,124.8h-25c-0.5-24.1-8.7-45.1-25.7-62.1c-17-17-37.8-25.1-61.9-25.7V11.8c5,0.4,10.1,0.6,15,1.2
		c26.5,3.7,49,15.1,67.3,34.6c16.8,17.9,26.5,39.2,29.4,63.6c0.3,2.3,0.6,4.6,0.8,6.9V124.8z"/>
	<path class="st0" d="M187,124.7h-24.6c-2.2-23.1-14.7-35.6-37.8-37.8V62.4C156,61.3,187.2,87.4,187,124.7z"/>
</g>
<rect x="-427.2" y="-430.6" class="st1" width="1024" height="1068"/>
</svg>
