<?xml version="1.0" encoding="utf-8"?>
<!-- Generator: Adobe Illustrator 21.1.0, SVG Export Plug-In . SVG Version: 6.00 Build 0)  -->
<svg version="1.1" id="Capa_1" xmlns="http://www.w3.org/2000/svg" xmlns:xlink="http://www.w3.org/1999/xlink" x="0px" y="0px"
	 viewBox="0 0 20.2 19.6" style="enable-background:new 0 0 20.2 19.6;" xml:space="preserve">
<style type="text/css">
	.st0{fill:none;}
	.st1{fill:#FFFFFF;}
</style>
<rect x="-501.4" y="-553.2" class="st0" width="1024" height="1126"/>
<rect x="-473.4" y="-553.2" class="st0" width="1024" height="1126"/>
<g>
	<path d="M13.8,0.9c0.6,0.1,0.9,0.5,1.3,1c0.2,0.2,0.4,0.4,0.6,0.6c0.4,0.4,0.7,0.8,0.6,1.4c0,0.4-0.2,0.7-0.5,1
		c-0.5,0.6-1.2,1-1.9,1.3c-0.9,0.4-1.8,0.7-2.7,1c0,0-0.1,0-0.2,0.1c0.2,0.1,0.4,0.2,0.5,0.3C12,7.6,12.4,7.8,12.8,8
		c0.1,0.1,0.1,0.1,0.1,0.2c0,0.8,0,1.6,0,2.4c0,0.1,0,0.1,0,0.2c0.1,0,0.2-0.1,0.2-0.1c0.4-0.2,0.8-0.4,1.3-0.6c0,0,0.1-0.1,0.1-0.1
		c0-0.8,0-1.6,0-2.5c0,0-0.1-0.1-0.1-0.1c-0.3-0.1-0.6-0.3-1-0.4c0.2-0.1,0.5-0.2,0.7-0.3c0.8-0.4,1.5-0.7,2.1-1.3c0,0,0.1,0,0.2,0
		c0.4,0.1,0.8,0.3,1.3,0.4c0.2,0.1,0.3,0.3,0.3,0.5c0,0.8,0,1.6,0,2.4c0,0.3-0.1,0.4-0.4,0.5c-1.1,0.5-2.1,1.1-3.2,1.6
		c-1,0.5-2,1-3,1.5c-0.3,0.2-0.6,0.3-0.9,0.5c-0.2,0.1-0.4,0.1-0.6,0c-1.1-0.5-2.1-1.1-3.2-1.6c-1-0.5-2-1-3-1.5
		C3.3,9.4,3,9.3,2.7,9.1C2.5,9,2.3,8.8,2.3,8.6c0-0.8,0-1.6,0-2.4c0-0.3,0.1-0.4,0.4-0.5c0.4-0.1,0.8-0.3,1.2-0.4
		c0.1,0,0.1,0,0.2,0.1c0.4,0.4,0.9,0.7,1.4,1c0.4,0.2,0.8,0.4,1.2,0.6c0,0,0.1,0,0.1,0.1C6.5,7.1,6.2,7.2,5.9,7.3
		c-0.1,0-0.2,0.1-0.2,0.3c0,0.8,0,1.5,0,2.3c0,0.1,0,0.2,0.1,0.2c0.4,0.2,0.9,0.4,1.3,0.7c0,0,0.1,0,0.1,0.1c0-0.1,0-0.1,0-0.2
		c0-0.8,0-1.6,0-2.4c0-0.1,0-0.2,0.1-0.2c0.5-0.3,1-0.5,1.5-0.8c0.1,0,0.1-0.1,0.2-0.1C8.7,7,8.4,6.9,8.1,6.8
		C7.2,6.5,6.3,6.2,5.5,5.7C4.9,5.4,4.5,5,4.1,4.5C3.7,3.8,3.8,3.1,4.4,2.6c0.3-0.3,0.5-0.5,0.8-0.8c0.1-0.1,0.2-0.2,0.3-0.3
		C5.7,1.2,6,1,6.4,0.9c0.1,0,0.3,0,0.4,0c0,0,0,0,0,0C7.4,1,7.8,1.3,8.1,1.7c0.5,0.5,0.8,1.1,1,1.7C9.5,4.2,9.8,5,10,5.8
		C10,5.9,10.1,6,10.1,6c0,0,0,0,0,0c0,0,0-0.1,0-0.1c0.3-1.2,0.7-2.3,1.3-3.4c0.3-0.5,0.7-1,1.2-1.4C12.9,1,13.1,1,13.4,0.9
		C13.5,0.9,13.6,0.9,13.8,0.9z M9.3,6.4c0-0.1,0-0.1-0.1-0.2C9.1,5.5,8.9,4.9,8.6,4.3C8.4,3.7,8.1,3.1,7.7,2.5
		C7.5,2.2,7.2,1.9,6.9,1.7c-0.2-0.1-0.4-0.1-0.5,0C6.2,1.9,6.1,1.9,6,2C5.8,2.3,5.6,2.5,5.4,2.7C5.2,2.9,5,3,4.9,3.2
		C4.6,3.5,4.6,3.7,4.8,4c0.3,0.5,0.7,0.8,1.2,1c0.9,0.5,1.8,0.8,2.8,1.1C8.9,6.2,9.1,6.3,9.3,6.4z M10.8,6.3c0.1,0,0.1,0,0.1,0
		c1.1-0.3,2.2-0.7,3.2-1.3c0.4-0.2,0.8-0.5,1.1-0.9c0.3-0.4,0.3-0.6-0.1-1c-0.2-0.2-0.5-0.5-0.7-0.7c-0.2-0.2-0.3-0.4-0.5-0.6
		c-0.3-0.3-0.5-0.3-0.8-0.1c-0.5,0.3-0.8,0.7-1.1,1.2c-0.4,0.6-0.6,1.3-0.9,2C11.1,5.4,11,5.9,10.8,6.3z"/>
	<path d="M3.1,9.9c0.3,0.1,0.5,0.3,0.8,0.4c0.2,0.1,0.2,0.2,0.2,0.4c0,1.1,0,2.1,0,3.2c0,0.1,0,0.2,0.1,0.2c1.2,0.7,2.4,1.4,3.7,2.1
		c0.5,0.3,1,0.6,1.5,0.9c0,0,0,0,0.1,0c0-1.3,0-2.6,0-4c0.6,0.1,0.6,0.1,1.1,0c0,1.3,0,2.7,0,4c0.2-0.1,0.4-0.2,0.6-0.3
		c0.8-0.5,1.6-0.9,2.4-1.4c0.8-0.5,1.6-0.9,2.4-1.4c0,0,0.1-0.1,0.1-0.2c0-0.7,0-1.5,0-2.2c0-0.4,0-0.8,0-1.2c0-0.1,0-0.1,0.1-0.2
		c0.3-0.1,0.6-0.3,1-0.5c0,0.1,0,0.1,0,0.2c0,1.4,0,2.8,0,4.2c0,0.3-0.1,0.5-0.3,0.6c-0.9,0.5-1.9,1.1-2.8,1.6
		c-0.9,0.5-1.7,1-2.6,1.5c-0.3,0.2-0.7,0.4-1,0.6c-0.2,0.1-0.4,0.1-0.6,0c-1-0.6-2-1.2-3-1.7c-0.9-0.5-1.9-1.1-2.8-1.6
		c-0.2-0.1-0.5-0.3-0.7-0.4c-0.2-0.1-0.2-0.2-0.2-0.4C3.1,12.9,3.1,11.4,3.1,9.9C3.1,10,3.1,10,3.1,9.9z"/>
	<path d="M10.1,5.8C9.9,5.4,9.7,4.9,9.5,4.5c0.4-0.2,0.7-0.2,1.1,0C10.5,4.9,10.3,5.4,10.1,5.8C10.1,5.8,10.1,5.8,10.1,5.8z"/>
</g>
</svg>
