<?xml version="1.0" encoding="utf-8"?>
<!-- Generator: Adobe Illustrator 21.1.0, SVG Export Plug-In . SVG Version: 6.00 Build 0)  -->
<svg version="1.1" id="Capa_1" xmlns="http://www.w3.org/2000/svg" xmlns:xlink="http://www.w3.org/1999/xlink" x="0px" y="0px"
	 viewBox="0 0 499.1 500.4" style="enable-background:new 0 0 499.1 500.4;" xml:space="preserve">
<style type="text/css">
	.st0{fill:none;}
</style>
<rect x="-283.6" y="-306.8" class="st0" width="1024" height="1126"/>
<rect x="-255.7" y="-306.8" class="st0" width="1024" height="1126"/>
<path d="M14.9,256.9c0-4.7,0-9.3,0-14c0.2-1.8,0.6-3.6,0.7-5.4C19.1,179,41,128.4,81.7,86.4c37-38.2,82.2-61,134.9-68.7
	c8.7-1.3,17.5-1.9,26.3-2.8c4.7,0,9.3,0,14,0c2.6,0.3,5.3,0.7,7.9,0.9c50.8,3.3,96.4,20.6,134.9,53.8c67.6,58.3,95,132.6,81,220.8
	c-9.1,57.4-37.2,105.2-82.7,141.1c-71.9,56.7-152.4,69.4-237.2,34.9C82.2,434.4,35.3,374,18.9,290.5
	C16.7,279.5,16.2,268.1,14.9,256.9z M57.9,249.5c-0.3,105.9,85.6,192.1,191.6,192.4c105.8,0.3,192.1-85.6,192.4-191.6
	c0.3-105.9-85.6-192.1-191.6-192.3C144.3,57.6,58.1,143.5,57.9,249.5z"/>
<path d="M228.6,185.8c0-21.5-0.1-43,0-64.5c0.1-9.1,4.7-15.6,12.9-19.1c8-3.4,15.7-2.1,22.4,3.7c5.2,4.6,7.2,10.5,7.2,17.4
	c-0.1,24,0,48,0,72c0,13.5,0.1,27-0.1,40.5c-0.1,3.6,1,6.2,3.6,8.8c16.7,16.5,33.3,33.2,49.9,49.8c6.6,6.6,8.9,14.4,5.7,23.3
	c-5.3,14.7-23.6,18.7-35.2,7.5c-9.7-9.4-19.1-19-28.7-28.6c-9.8-9.8-19.4-19.7-29.4-29.3c-5.9-5.7-8.5-12.3-8.4-20.5
	C228.8,226.5,228.6,206.2,228.6,185.8C228.6,185.8,228.6,185.8,228.6,185.8z"/>
</svg>
