<?xml version="1.0" encoding="utf-8"?>
<!-- Generator: Adobe Illustrator 21.1.0, SVG Export Plug-In . SVG Version: 6.00 Build 0)  -->
<svg version="1.1" id="Capa_1" xmlns="http://www.w3.org/2000/svg" xmlns:xlink="http://www.w3.org/1999/xlink" x="0px" y="0px"
	 viewBox="0 0 239.1 121" style="enable-background:new 0 0 239.1 121;" xml:space="preserve">
<style type="text/css">
	.st0{fill:none;}
</style>
<rect x="-409.9" y="-456.3" class="st0" width="1024" height="1068"/>
<g>
	<path d="M232,114c-2.2,1.1-4.4,3.2-6.6,3.2c-50,0.2-100,0.2-149.9,0.1c-5.7,0-6.7-1-6.7-6.8c-0.1-8.5,0-16.9,0-26.1
		c-5.4,0-10.3,0-15.3,0c-3,0-6,0-9,0c-3.2,0-5.7-1-5.7-4.7c0-3.6,2.4-4.8,5.7-4.7c6,0,12,0,18,0c1.8,0,3.6,0,5.8,0
		c0.2-1.5,0.5-2.8,0.5-4c0-3.4,0.4-6.8,4.7-6.8c4.6,0,4.8,3.6,4.8,7.2c-0.1,7.8,0,15.7,0,23.5c0,1.6,0,3.2,0,4.4
		C92.2,85,106.2,71,120.6,56.6c-13.3-11.8-27.4-24.3-42.5-37.7c0,6.7,0,12.2,0,17.8c0,3.3-0.6,6.2-4.6,6.3c-4,0.1-4.8-2.7-4.8-6.1
		c0-8.8,0-17.7,0-26.5c0-5.9,1-6.8,7.2-6.8c20,0,40,0,60,0c29.5,0,59,0,88.5,0c3.1,0,6,0.1,7.6,3.4C232,42.7,232,78.3,232,114z
		 M222,13.5c-45.3,0-89.9,0-135.5,0c21.8,19.3,42.8,37.9,63.9,56.5c13.3-11.2,26.2-22.2,39.2-33.2c5-4.2,9.9-8.4,14.8-12.6
		c2.4-2.1,5.1-2.9,7.5-0.2c2.6,2.9,1.3,5.5-1.3,7.7c-0.5,0.4-1,0.8-1.5,1.3c-9.7,8.3-19.5,16.5-28.3,24.1
		c14.1,14.1,27.9,28,41.4,41.5C222,70.8,222,42.2,222,13.5z M86.5,107.7c42.6,0,85.2,0,127.2,0c-13.9-14.1-28-28.3-42.3-42.8
		c-5.2,4.4-10.8,8.9-16.1,13.7c-3.5,3.2-6.4,3.2-9.9,0c-5.3-5-10.9-9.7-15.7-13.9C115,79.1,100.8,93.3,86.5,107.7z"/>
	<path d="M53.2,59c-13,0-26-0.1-38.9,0c-3.7,0-7.1-0.7-7.1-5c0-4,3.3-4.8,6.8-4.7c26,0,51.9,0,77.9,0c3.6,0,7.1,0.4,7,5
		c-0.1,4.5-3.7,4.7-7.3,4.7C78.8,59,66,59,53.2,59z"/>
	<path d="M39.2,32.1c-5.8,0-11.6,0-17.4,0c-3.1,0-5.8-0.8-5.9-4.5c-0.2-4,2.5-5.1,5.9-5.1c11.5,0,22.9,0,34.4,0c3.3,0,6.1,1,5.9,5
		c-0.2,3.6-2.7,4.6-5.9,4.6C50.5,32,44.8,32.1,39.2,32.1z"/>
	<path d="M29.7,105.1c-5.5,0-11-0.1-16.5,0c-3.6,0.1-6.1-1.4-6.1-5c0-3.4,2.6-4.6,5.9-4.6c11.1,0.1,22.3,0,33.4,0
		c3.2,0,5.7,0.9,5.8,4.6c0,4-2.7,4.9-6,4.9C40.7,105,35.2,105.1,29.7,105.1z"/>
</g>
</svg>
